<svg version="1.1" viewBox="0 0 250 250" xml:space="preserve" xmlns="http://www.w3.org/2000/svg">
<style type="text/css">
	.st0{fill:#717071;}
	.st1{font-family:'MicrosoftYaHei';}
	.st2{font-size:9px;}
	.st3{fill:#0096C2;}
	.st4{font-family:'MicrosoftYaHei-Bold';}
	.st5{font-size:12.29px;}
	.st6{font-size:8px;}
	.st7{fill:#1C385A;}
	.st8{fill-rule:evenodd;clip-rule:evenodd;fill:#0096C2;}
	.st9{fill:#FFFFFF;}
	.st10{font-size:27.043px;}
	.st11{font-size:7.1692px;}
	.st12{font-size:6.6571px;}
</style>
<circle cx="125" cy="125" r="125" fill="#fff" stroke-width=".37795"/><path class="st8" d="m207.51 160.76 0.33473 0.14506-0.0335 0.0781c-0.24547 0.55791-0.32358 1.0042-0.22316 1.3167 0.10042 0.32359 0.41284 0.59138 0.91494 0.81455l3.0349 1.3501 6.6277-1.3613c0.39052-0.0893 0.71409-0.23432 0.97072-0.44633 0.25663-0.20085 0.47978-0.49096 0.66946-0.85918l0.33473 0.14505-2.2539 5.077-0.32357-0.14506c0.16737-0.50212 0.25663-0.85918 0.26778-1.0824 0.0112-0.22316-0.0558-0.36822-0.20083-0.42401-0.15621-0.0669-0.424-0.0781-0.78105-0.0112-0.0223 0.0112-0.0446 0.0112-0.0558 0.0112l-4.9206 0.94845 2.4212 3.7492c0.23431 0.36822 0.40167 0.6137 0.49094 0.72529 0.10042 0.11158 0.18968 0.18969 0.27894 0.23432 0.14505 0.0669 0.30126 0.0335 0.45747-0.10042 0.1562-0.1339 0.34588-0.42402 0.59135-0.85919l0.33474 0.14506-1.5286 3.4367-0.33473-0.14506c0.12273-0.33474 0.1562-0.66949 0.0893-0.99308-0.067-0.32359-0.27894-0.76991-0.63599-1.339l-3.1018-4.8873-3.325-1.484c-0.46863-0.21201-0.83683-0.23432-1.1158-0.0893-0.27895 0.14506-0.56905 0.5356-0.87031 1.1605l-0.33473-0.14506zm3.3473-4.5749c-0.25663-0.87034-0.39052-1.7295-0.40168-2.5887-0.0112-0.85918 0.10042-1.7184 0.34589-2.5552 0.54673-1.8969 1.5286-3.2694 2.9345-4.1174 1.417-0.84803 3.0126-1.0266 4.7644-0.52444 1.8187 0.52444 3.1353 1.5398 3.9498 3.0462 0.81452 1.5175 0.94841 3.2024 0.41284 5.0882-0.212 0.73645-0.53557 1.4283-0.99304 2.0866-0.44631 0.65834-0.68062 1.0266-0.70294 1.0935-0.0335 0.1339-0.0223 0.2678 0.0669 0.40169 0.0781 0.1339 0.212 0.24549 0.40168 0.35707l-0.0781 0.29011-3.6151-0.84802 0.10042-0.34591c1.1827-0.11158 2.0865-0.40169 2.7225-0.87034s1.0823-1.2051 1.3724-2.187c0.39052-1.3725 0.22315-2.611-0.52442-3.7157-0.73641-1.1047-1.9191-1.8969-3.5482-2.3655-1.6402-0.46865-3.0684-0.42402-4.2957 0.13389-1.2162 0.56907-2.0307 1.5398-2.4324 2.9458-0.14505 0.51327-0.212 1.0266-0.17853 1.5398 0.0223 0.51328 0.1339 0.97077 0.33474 1.3613l3.1242 0.89266c0.66946 0.18969 1.1046 0.21201 1.3054 0.0669 0.20084-0.14506 0.43515-0.60254 0.69178-1.3725l0.36821 0.10042-1.417 4.9431-0.36821-0.10043c0.14505-0.56907 0.15621-0.9596 0.0558-1.1939-0.11158-0.22316-0.45747-0.42401-1.0377-0.59138zm10.031-25.418c1.8745 0.23432 3.3138 0.98192 4.3069 2.2428 0.99304 1.272 1.3836 2.8342 1.1492 4.6864-0.22315 1.8634-0.98188 3.2917-2.2539 4.2736-1.272 0.99309-2.8452 1.3613-4.7309 1.1381-1.8856-0.23432-3.325-0.98192-4.3292-2.2428-1.0042-1.272-1.3836-2.8342-1.1604-4.6976 0.22316-1.8523 0.98188-3.2805 2.2539-4.2624 1.2943-0.99309 2.8787-1.3725 4.7644-1.1381zm-0.24547 2.0531c-1.7183-0.21201-3.1242-0.0112-4.2176 0.6137-1.0935 0.6137-1.7183 1.551-1.8745 2.8119-0.1562 1.2609 0.22316 2.3209 1.1381 3.1912s2.2316 1.4059 3.9498 1.6179c1.7071 0.21201 3.1018 0 4.1953-0.6137 1.0935-0.61371 1.7183-1.5622 1.8745-2.823s-0.22316-2.3209-1.1381-3.1801c-0.91493-0.87034-2.2204-1.4059-3.9275-1.6179zm-5.8243-15.153 0.3682-0.0112v0.0893c0.0112 0.63602 0.14505 1.0712 0.39052 1.3055s0.73641 0.33475 1.4505 0.32359l7.8216-0.1339c0.70294-0.0112 1.1492-0.1339 1.3389-0.36822s0.27894-0.69181 0.27894-1.3948l0.36821-0.0112 0.10042 5.4675-0.36821 0.0112v-0.0893c-0.0112-0.63602-0.13389-1.0824-0.37936-1.3278s-0.68062-0.35707-1.2943-0.34591l-8.0782 0.14506c-0.53557 0.0112-0.8703 0.0893-1.0042 0.24548-0.1339 0.15622-0.18969 0.4798-0.18969 0.98192l0.0335 2.0754c0.0112 0.89266 0.22315 1.618 0.62483 2.187s1.0265 1.0266 1.8857 1.3613l0.0111 0.36822-3.18-0.92613zm3.6263-15.432c1.8633-0.32359 3.4589-0.0335 4.7755 0.8815 1.3278 0.92613 2.1423 2.2986 2.4658 4.1397 0.32358 1.8523 0.0223 3.4256-0.90377 4.7422-0.92609 1.3167-2.3208 2.1424-4.1842 2.466-1.8745 0.33475-3.47 0.0335-4.7978-0.8815-1.3278-0.92613-2.1534-2.2986-2.477-4.1509-0.32357-1.8411-0.0223-3.4256 0.91494-4.7422 0.92609-1.3055 2.332-2.1312 4.2065-2.4548zm0.35705 2.0308c-1.7071 0.30127-2.9903 0.90381-3.8606 1.8188-0.8703 0.91497-1.1939 1.9862-0.97072 3.2359 0.22316 1.2497 0.89262 2.1535 2.0196 2.7226 1.1269 0.55791 2.544 0.69181 4.2511 0.39054 1.696-0.30128 2.968-0.90382 3.8271-1.8188 0.87031-0.91497 1.1827-1.9973 0.97073-3.247-0.22316-1.2497-0.89262-2.1535-2.0196-2.7114-1.1158-0.55791-2.5216-0.68065-4.2176-0.39053zm-8.0894-13.167c-0.63599 0.20085-1.0154 0.44633-1.1269 0.71413-0.11158 0.2678-0.0781 0.75876 0.0893 1.4506l-0.34589 0.11158-1.3389-4.1174 0.34589-0.11158c0.26779 0.66949 0.53557 1.0712 0.78104 1.2274s0.69178 0.12274 1.3278-0.08927l7.9889-2.5999c0.31242-0.3459 0.51326-0.68065 0.61368-0.99308 0.10042-0.32359 0.10042-0.66949 0.0223-1.0377l0.34589-0.11158 0.95957 2.9458-5.9248 9.4064 6.2149-2.0196c0.63599-0.20085 1.0154-0.44633 1.1269-0.71413 0.11157-0.2678 0.0781-0.7476-0.0893-1.4394l0.34589-0.11158 1.3278 4.0951-0.34588 0.11158c-0.26779-0.65834-0.52442-1.0712-0.76989-1.2274-0.24547-0.14506-0.69178-0.12274-1.3278 0.08927l-9.5175 3.0908-0.11158-0.3459 6.7058-10.712zm-10.243-15.008 0.32358-0.17853c0.3682 0.60254 0.69178 0.95961 0.99303 1.0489 0.30126 0.10042 0.72526-0.01116 1.272-0.33475l6.9847-4.0281c0.53557-0.31243 0.83683-0.62486 0.90378-0.94845 0.0669-0.32359-0.0558-0.79223-0.39052-1.4059l0.31241-0.17853 2.7113 4.7088-0.31242 0.17853c-0.39052-0.60254-0.72525-0.94845-1.0265-1.0377-0.30125-0.08927-0.71409 0.02232-1.2497 0.32359l-2.5886 1.4952c-0.18969 0.11158-0.30126 0.21201-0.32358 0.31243-0.0223 0.10042 0.0112 0.24548 0.12274 0.42401l2.5551 4.4298c0.0893 0.15622 0.18968 0.24548 0.2901 0.2678 0.10042 0.01116 0.24547-0.03347 0.45746-0.15622l2.5551-1.4729c0.52442-0.30127 0.82568-0.6137 0.90378-0.92613 0.0669-0.31243-0.0558-0.78108-0.39052-1.4059l0.31242-0.18969 2.7225 4.7199-0.31242 0.17853c-0.3682-0.60254-0.70293-0.94845-1.0042-1.0489s-0.72525 0.01116-1.272 0.32359l-6.9847 4.0281c-0.53557 0.31243-0.83683 0.6137-0.90377 0.93729-0.0669 0.31243 0.0558 0.78108 0.39052 1.3948l-0.31242 0.17853-2.7225-4.7199 0.32358-0.17853c0.3682 0.60254 0.70294 0.94845 1.0042 1.0377 0.30126 0.10042 0.72526-0.01116 1.2497-0.31243l2.8675-1.6514c0.18969-0.11158 0.31242-0.21201 0.33474-0.30127 0.0335-0.08927 0-0.21201-0.0893-0.37938l-2.5663-4.441c-0.10042-0.16737-0.20084-0.2678-0.31242-0.29011-0.11158-0.02232-0.25663 0.01116-0.43515 0.11158l-2.8452 1.6403c-0.53557 0.31243-0.83683 0.62486-0.91493 0.92613-0.0781 0.31243 0.0558 0.78108 0.39052 1.3948l-0.31242 0.17853zm1.4728-3.3028-0.0558 0.42401c-1.1381 0.06695-2.1534-0.08927-3.0349-0.45749-0.88146-0.36822-1.6513-0.95961-2.3208-1.7853-1.1939-1.4729-1.7071-3.0127-1.5509-4.6083 0.16737-1.6068 0.97072-2.9904 2.4212-4.162 1.4394-1.1716 3.0014-1.6626 4.6751-1.484 1.6736 0.17853 3.1018 0.99308 4.2734 2.4437 0.44631 0.55791 0.82568 1.2051 1.1158 1.9304 0.30126 0.73644 0.47978 1.1381 0.53557 1.2162 0.11158 0.1339 0.24547 0.20085 0.39052 0.21201 0.15621 0.01116 0.30126-0.03347 0.44631-0.15622l0.21199 0.25664-2.8117 2.7226-0.23431-0.27896c0.63599-0.94845 0.95956-1.8746 0.95956-2.7672s-0.30126-1.7184-0.92609-2.4883c-0.8703-1.0823-1.9749-1.6179-3.3138-1.6291-1.3389-0.01116-2.6555 0.51328-3.9722 1.5845-1.2608 1.0266-2.0307 2.187-2.2985 3.4925-0.27894 1.3055 0 2.4771 0.83683 3.5037 0.56905 0.70297 1.2274 1.2162 1.9526 1.5398 0.74757 0.31243 1.6514 0.4798 2.7002 0.49096zm-18.678-16.258 0.25663-0.25664c0.52441 0.46864 0.9484 0.71413 1.2608 0.71413 0.31242 0.01116 0.68062-0.21201 1.1158-0.68065l5.5119-5.9139c0.42399-0.45749 0.62483-0.83687 0.60252-1.1493-0.0223-0.31243-0.2901-0.72528-0.7922-1.2386l0.24547-0.25664 7.5203 7.0074-1.696 2.0531-0.26778-0.24548c0.43515-0.64718 0.61367-1.1828 0.54672-1.6068-0.0558-0.42401-0.40167-0.93729-1.0377-1.5175l-2.2204-2.0754c-0.26779-0.25664-0.46863-0.37938-0.61368-0.39054-0.14505-0.01116-0.34589 0.1339-0.60251 0.41286l-2.2092 2.3655c-0.16737 0.17853-0.25663 0.31243-0.25663 0.41285 0 0.08927 0.0893 0.22316 0.27894 0.4017l1.7518 1.6291c0.68063 0.63602 1.2162 0.97077 1.5844 0.99308 0.36821 0.02232 0.7922-0.18969 1.2608-0.64718l0.26779 0.24548-2.8118 3.0239-0.26778-0.24548c0.43515-0.5356 0.63599-0.98192 0.59136-1.3501-0.0335-0.36822-0.40168-0.87034-1.0935-1.5064l-1.7629-1.6403c-0.16737-0.15622-0.30126-0.23432-0.40168-0.23432s-0.23431 0.08927-0.40168 0.27896l-2.4547 2.6333c-0.30125 0.32359-0.45746 0.56907-0.45746 0.7476-0.0112 0.17853 0.11157 0.37938 0.3682 0.6137l2.053 1.9192c0.83683 0.78108 1.5398 1.2162 2.1311 1.3278 0.59136 0.11158 1.3389-0.04463 2.2539-0.46865l0.13389 0.3459-2.7002 1.5175zm-7.6988-5.8358 0.212-0.30127c0.62483 0.43517 1.0934 0.62486 1.4059 0.56907 0.31242-0.05579 0.70294-0.4017 1.1492-1.0377l4.9206-7.0297c0.14505-0.21201 0.20084-0.35706 0.17853-0.43517-0.0335-0.07811-0.18969-0.22316-0.47979-0.42401l-0.24547-0.16737c-0.9484-0.66949-1.6848-0.98192-2.2204-0.94845-0.52442 0.03348-1.1046 0.4017-1.7183 1.1158l-0.30126-0.21201 1.8522-2.466 8.915 6.2486-1.7741 2.5218-0.31241-0.22316c0.46862-0.82571 0.63599-1.484 0.5021-1.975-0.12274-0.4798-0.74757-1.1158-1.8745-1.9081-0.33473-0.23432-0.53557-0.3459-0.63599-0.33475-0.0893 0.01116-0.212 0.11158-0.34589 0.30127l-4.8871 6.9739c-0.49094 0.70297-0.69177 1.2051-0.61367 1.5064 0.0893 0.30127 0.42399 0.66949 1.0265 1.1047l-0.20084 0.30127zm-15.453-8.6476 0.16736-0.32359c0.66947 0.31243 1.1492 0.42401 1.4282 0.3459 0.2901-0.07811 0.5802-0.4017 0.87031-0.98192l3.6597-7.1747c0.27894-0.55791 0.3682-0.99308 0.25663-1.3055-0.11158-0.31243-0.47978-0.62486-1.1046-0.93729l0.17853-0.33475 8.8816 4.5302-1.1158 2.611-0.32357-0.16737c0.24547-0.78108 0.26778-1.3948 0.0781-1.8299-0.18968-0.43517-0.68062-0.85918-1.4505-1.2497l-2.2762-1.1605c-0.31241-0.15622-0.56904-0.21201-0.74756-0.16737-0.17853 0.05579-0.33474 0.22316-0.49094 0.51328l-1.4728 2.89c-0.12274 0.24548-0.16737 0.41285-0.14505 0.50212 0.0335 0.08927 0.14505 0.18969 0.35704 0.30127l1.417 0.72528c0.81452 0.41285 1.4059 0.59138 1.7852 0.51328 0.3682-0.07811 0.70294-0.41285 1.0042-1.0042l0.32357 0.16737-1.9303 3.7938-0.32357-0.16737c0.2901-0.69181 0.39052-1.2051 0.26778-1.5287-0.12273-0.32359-0.60251-0.70297-1.4505-1.1381l-1.4394-0.73644c-0.18968-0.10042-0.32357-0.12274-0.42399-0.10042-0.10042 0.03348-0.20084 0.1339-0.2901 0.31243l-1.5174 2.9681c-0.2901 0.56907-0.36821 1.0042-0.23431 1.3278 0.13389 0.32359 0.52441 0.65834 1.1939 1.0042l-0.15621 0.32359zm-11.716-10.466c0.61367-1.7853 1.6513-3.0462 3.0907-3.7492 1.4505-0.71413 3.0572-0.75876 4.8201-0.15622 1.7741 0.6137 3.0126 1.6403 3.7155 3.0908 0.70293 1.4506 0.74756 3.0685 0.12273 4.8538-0.61367 1.7965-1.6513 3.0574-3.1018 3.7715-1.4505 0.71413-3.0572 0.76992-4.8313 0.15622s-3.0014-1.6403-3.7044-3.102c-0.69178-1.4506-0.72525-3.0685-0.11157-4.865zm1.9526 0.66949c-0.55789 1.6403-0.65831 3.0574-0.27895 4.2513 0.37937 1.1939 1.1604 2.0085 2.3654 2.4213 1.205 0.41286 2.3208 0.2678 3.3585-0.44633 1.0377-0.71413 1.841-1.8857 2.3989-3.526 0.55789-1.6291 0.64715-3.035 0.26778-4.229-0.37936-1.1939-1.1716-2.0085-2.3654-2.4213-1.1939-0.41285-2.3096-0.2678-3.3473 0.44633s-1.8299 1.8746-2.3989 3.5037zm-18.064 3.0127 0.0446-0.35706 0.0893 0.01116c0.61368 0.07811 1.0488 0.01116 1.3278-0.17853 0.27894-0.18969 0.44631-0.56907 0.51326-1.1158l0.40168-3.2917-3.2469-5.9362c-0.20084-0.3459-0.43515-0.6137-0.70294-0.80339-0.26779-0.18969-0.61367-0.31243-1.0154-0.37938l0.0446-0.35706 5.5119 0.68065-0.0446 0.35706c-0.52441-0.02232-0.90377 0-1.1158 0.05579s-0.33473 0.15622-0.34589 0.31243c-0.0223 0.16737 0.0558 0.42401 0.22316 0.75876 0.0111 0.02232 0.0223 0.03347 0.0335 0.04463l2.3431 4.4187 2.8675-3.4144c0.2901-0.33475 0.46862-0.55791 0.55788-0.69181 0.0781-0.1339 0.1339-0.23432 0.14505-0.33475 0.0223-0.15622-0.0558-0.30127-0.22315-0.4017-0.17852-0.10042-0.5021-0.21201-0.99304-0.31243l0.0446-0.35706 3.7378 0.45749-0.0446 0.35706c-0.35705-0.02232-0.69178 0.04463-0.98188 0.20085-0.2901 0.15622-0.65831 0.49096-1.0935 0.99308l-3.7602 4.3963-0.44631 3.6153c-0.0669 0.50212 0.0223 0.87034 0.24547 1.0935 0.22315 0.22316 0.68062 0.39054 1.3612 0.49096l-0.0446 0.35706zm-13.568-0.17853v-0.36822c0.75873 0 1.2497-0.11158 1.484-0.33475 0.23431-0.22316 0.34589-0.72528 0.34589-1.5064v-8.5807c0-0.25664-0.0335-0.41286-0.11158-0.45749-0.0669-0.04463-0.2901-0.07811-0.63599-0.07811h-0.2901c-1.1604 0-1.9526 0.16737-2.3543 0.49096-0.41283 0.33475-0.66946 0.95961-0.76988 1.8969h-0.36821l0.10042-3.0908h10.89v3.0908h-0.37937c-0.10042-0.94845-0.33473-1.5733-0.71409-1.9081-0.37936-0.32359-1.2608-0.49096-2.6221-0.49096-0.40168 0-0.63599 0.03347-0.70293 0.08927-0.067 0.05579-0.11158 0.21201-0.11158 0.44633v8.5137c0 0.85918 0.12273 1.3836 0.35705 1.5845 0.24547 0.20085 0.72525 0.30127 1.4728 0.32359l0.0112 0.36822h-5.6012zm-9.8969 1.3167-0.0446-0.35706c0.69178-0.10042 1.1492-0.2678 1.3501-0.51328 0.21199-0.23432 0.27894-0.66949 0.20083-1.3055l-0.98188-8.0004c-0.0781-0.6137-0.24547-1.0154-0.51325-1.2051-0.26779-0.18969-0.74757-0.24548-1.4282-0.17853l-0.0446-0.35706 5.4226-0.66949 0.0335 0.36822c-0.70294 0.11158-1.1604 0.29011-1.3612 0.5356-0.20084 0.24548-0.26779 0.66949-0.18969 1.2832l0.98188 8.0004c0.0781 0.6137 0.24547 1.0154 0.51326 1.2051 0.26778 0.18969 0.74757 0.24548 1.4394 0.17853l0.0558 0.35706zm-9.2721 2.2763-1.5174-3.6264 0.35705-0.07811c0.63599 0.91497 1.3389 1.5845 2.0865 1.9973 0.74757 0.41285 1.484 0.54675 2.1869 0.37938 0.62483-0.14506 1.0934-0.45749 1.4282-0.95961 0.32357-0.49096 0.42399-1.0377 0.2901-1.6291-0.10042-0.43517-0.33474-0.81455-0.70294-1.127s-0.88146-0.56907-1.5509-0.78108l-2.0865-0.68065c-0.89262-0.27896-1.5732-0.62486-2.0307-1.0377s-0.75872-0.92613-0.90378-1.5622c-0.20084-0.89266-0.05579-1.696 0.44631-2.4102 0.5021-0.71413 1.2608-1.1828 2.2873-1.4171 0.46863-0.11158 0.99304-0.1339 1.5621-0.07811 0.56905 0.05579 0.91494 0.06695 1.0042 0.04463 0.12273-0.03347 0.212-0.10042 0.26778-0.20085 0.0558-0.11158 0.067-0.24548 0.0558-0.43517l0.30126-0.06695 1.205 3.4479-0.35705 0.07811c-0.55789-0.8815-1.1604-1.5064-1.8076-1.8857s-1.3166-0.49096-1.9972-0.33475c-0.5802 0.1339-1.0153 0.4017-1.3054 0.81455-0.2901 0.41285-0.37936 0.8815-0.25663 1.3948 0.08926 0.4017 0.30126 0.73644 0.63599 1.0154 0.33473 0.2678 0.83683 0.52444 1.5398 0.7476l2.3096 0.72528c0.94841 0.31243 1.6402 0.66949 2.0865 1.0823 0.44631 0.41286 0.74757 0.94845 0.90378 1.6179 0.23431 1.0042 0.0781 1.8969-0.46863 2.6557-0.53557 0.75876-1.3836 1.272-2.5328 1.5398-0.53557 0.12274-1.1046 0.17853-1.7071 0.14506-0.60252-0.02232-0.92609-0.03347-0.98188-0.01116-0.15621 0.03347-0.27894 0.10042-0.35705 0.20085-0.0781 0.08926-0.11158 0.21201-0.11158 0.36822zm-13.925 5.1997-0.13389-0.33475 0.20084-0.07811c0.55789-0.22316 0.90378-0.50212 1.0265-0.81455s0.06695-0.76992-0.17852-1.3725l-3.0237-7.4872c-0.22315-0.54675-0.47978-0.85918-0.78104-0.95961-0.30126-0.10042-0.7922-0.01116-1.4728 0.24548l-0.13389-0.33475 5.657-2.2874c1.2497-0.50212 2.3096-0.64718 3.1688-0.42401 0.85914 0.22316 1.4728 0.80339 1.8522 1.7407 0.2901 0.72528 0.30126 1.4283 0.03347 2.0977-0.26779 0.66949-0.81451 1.2944-1.629 1.8634 2.2092 1.2832 3.8159 2.1424 4.8201 2.5999 1.0042 0.45749 1.6848 0.63602 2.0307 0.5356l0.13389 0.33475-2.5216 1.0154c-0.99304-0.46864-2.0084-0.98192-3.0349-1.5398-1.0377-0.56907-2.0977-1.1828-3.18-1.8411l-1.0154 0.41286c-0.15621 0.06695-0.25663 0.1339-0.30126 0.22316-0.04463 0.08927-0.03347 0.20085 0.02232 0.3459l1.1158 2.7561c0.24547 0.60254 0.52441 0.97077 0.84799 1.1047 0.32357 0.1339 0.78104 0.07811 1.3947-0.16737l0.14505-0.05579 0.13389 0.33475zm0.95956-7.4425c0.05579 0.14506 0.14505 0.24548 0.23431 0.27896 0.08926 0.03347 0.212 0.02232 0.3682-0.03348 1.3389-0.54675 2.2315-1.1381 2.6667-1.7853 0.44631-0.64718 0.47978-1.4171 0.12274-2.2986-0.32357-0.81455-0.82567-1.3055-1.4728-1.484-0.65831-0.17853-1.5286-0.04463-2.6221 0.4017-0.49094 0.20085-0.78104 0.37938-0.85914 0.53559-0.0781 0.15622-0.04463 0.42401 0.11158 0.79223zm-12.441 13.925-0.16737-0.32359c0.61368-0.35706 0.97072-0.68065 1.0711-0.98192 0.11158-0.29011 0.01116-0.71413-0.30126-1.272l-3.9164-7.0632c-0.30126-0.54675-0.60252-0.84802-0.91493-0.92613-0.30126-0.07811-0.78104 0.05579-1.4282 0.36822l-0.16737-0.31243 8.9931-4.9766 1.4282 2.2428-0.32357 0.17853c-0.47978-0.60254-0.92609-0.94845-1.3612-1.0266-0.42399-0.07811-1.0154 0.08927-1.7629 0.51328l-2.6555 1.4729c-0.32357 0.17853-0.5021 0.33475-0.55789 0.46864-0.04463 0.1339 0.02232 0.36822 0.20084 0.70297l1.5621 2.823c0.12274 0.22316 0.22315 0.33475 0.31242 0.36822 0.08926 0.02232 0.24547-0.02232 0.46862-0.14506l2.0977-1.1605c0.81451-0.45749 1.2943-0.85918 1.4282-1.1939 0.13389-0.3459 0.06695-0.80339-0.22316-1.3948l0.32357-0.17853 1.9972 3.6153-0.32357 0.17853c-0.37936-0.58023-0.74757-0.90382-1.1046-0.98192-0.35705-0.07811-0.94841 0.11158-1.7741 0.56907l-2.1088 1.1716c-0.20084 0.11158-0.32357 0.21201-0.34589 0.30127-0.03347 0.08927 0.01116 0.24548 0.13389 0.46865l1.7406 3.1466c0.212 0.39054 0.40168 0.60254 0.56904 0.66949 0.16737 0.05579 0.40168 0.01116 0.69178-0.15622l2.4547-1.3613c0.99304-0.54675 1.629-1.0935 1.9191-1.6179 0.27894-0.5356 0.3682-1.2944 0.25663-2.2874l0.3682-0.02232 0.60252 3.035zm-6.0921 5.2778-9.3055-5.2332c-0.80336-0.44633-1.4059-0.70297-1.8187-0.75876-0.41284-0.05579-0.7922 0.04463-1.1381 0.29011l-0.22316-0.29011 4.0614-3.0685 0.212 0.30127c-0.44631 0.39054-0.7141 0.66949-0.80336 0.85918-0.08926 0.18969-0.06695 0.36822 0.0781 0.55791 0.14505 0.18969 0.78104 0.6137 1.9191 1.2832 1.1381 0.65834 3.0795 1.7295 5.8132 3.1913l-1.696-7.543c-0.06695-0.2678-0.13389-0.50212-0.18968-0.68065-0.06695-0.18969-0.13389-0.32359-0.20084-0.41285-0.15621-0.21201-0.34589-0.30127-0.56904-0.2678-0.22316 0.02232-0.54673 0.18969-0.98188 0.4798l-0.22316-0.29011 2.901-2.187 0.22316 0.29011c-0.24547 0.21201-0.39052 0.4798-0.43515 0.80339-0.04463 0.32359 0.02232 0.85918 0.212 1.6291l2.4882 10.812zm-9.9415 9.2502-0.25663-0.25664c0.46862-0.51328 0.7141-0.93729 0.72525-1.2497 0.01116-0.31243-0.212-0.69181-0.66946-1.1381l-5.802-5.6014c-0.44631-0.42401-0.82567-0.63602-1.1604-0.6137-0.32357 0.02232-0.73641 0.27896-1.2274 0.75876l-0.26778-0.25664 3.7936-3.9277 0.25663 0.25664c-0.47978 0.5356-0.71409 0.95961-0.72525 1.272-0.01116 0.31243 0.212 0.69181 0.65831 1.1158l5.802 5.6014c0.44631 0.43517 0.83683 0.63602 1.1492 0.6137 0.32357-0.02232 0.73641-0.27896 1.2274-0.76992l0.26778 0.24548zm-9.1382 7.8108c0.51326 0.42401 0.92609 0.60254 1.205 0.55791 0.2901-0.05579 0.68062-0.3459 1.1716-0.87034l0.27894 0.23432-2.7225 3.3586-0.27894-0.23432c0.41284-0.59139 0.61368-1.0266 0.60252-1.3278-0.01116-0.29011-0.27894-0.64718-0.7922-1.0712l-6.5273-5.289c-0.45747-0.07811-0.84799-0.06695-1.1716 0.03348-0.32357 0.08927-0.61368 0.27896-0.88146 0.54675l-0.27894-0.23432 1.9526-2.4102 11.113-0.15622-5.0768-4.1062c-0.51326-0.42401-0.92609-0.60254-1.205-0.55791-0.2901 0.04463-0.66946 0.33475-1.1492 0.85918l-0.27894-0.23432 2.7113-3.3475 0.27894 0.23432c-0.41284 0.58023-0.61368 1.0154-0.60252 1.3167 0.01116 0.29011 0.27894 0.64718 0.7922 1.0712l7.7769 6.2932-0.23431 0.27896-12.642 0.21201zm-17.149 11.292-0.32358-0.16737 2.5105-4.7199 0.31242 0.16737c-0.2901 0.60254-0.39052 1.06-0.2901 1.3613 0.10042 0.30127 0.49094 0.63602 1.1492 0.98192l4.5524 2.4213c1.2497 0.65834 2.2985 0.90382 3.1688 0.72528 0.8703-0.18969 1.5732-0.79223 2.1311-1.8411 0.56904-1.06 0.68062-2.0531 0.35705-2.9792-0.32357-0.92613-1.06-1.696-2.2204-2.3098l-4.5524-2.4213c-0.64715-0.3459-1.1381-0.46865-1.484-0.36822-0.34589 0.08927-0.68062 0.44633-1.0154 1.0377l-0.32357-0.16737 1.9861-3.7492 0.31242 0.16737c-0.25663 0.5356-0.32357 0.98192-0.20084 1.3055 0.13389 0.33475 0.51326 0.66949 1.1381 1.0042l4.3404 2.3098c1.4951 0.79223 2.4324 1.7742 2.8006 2.9346 0.3682 1.1605 0.16737 2.466-0.61368 3.9389-0.40168 0.7476-0.84799 1.3725-1.3612 1.8634-0.51326 0.49096-1.0488 0.82571-1.6179 1.0042-0.52441 0.15622-1.0711 0.17853-1.6625 0.06695-0.5802-0.11158-1.2831-0.39054-2.1088-0.82571l-3.9833-2.1201c-0.94841-0.50212-1.6067-0.72528-1.9861-0.64718-0.33473 0.05579-0.69178 0.4017-1.0154 1.0266zm7.0071 11.192c0.24547 0.87034 0.35705 1.7407 0.35705 2.5999s-0.13389 1.7072-0.39052 2.5552c-0.5802 1.8857-1.5844 3.2359-3.0126 4.0616-1.4282 0.82571-3.0237 0.97077-4.7755 0.43517-1.8187-0.55791-3.113-1.5956-3.894-3.1243-0.78104-1.5287-0.89262-3.2247-0.32357-5.0993 0.22316-0.73644 0.56904-1.4171 1.0265-2.0754 0.45747-0.64718 0.70294-1.0154 0.71409-1.0712 0.04463-0.1339 0.02232-0.2678-0.05579-0.4017-0.0781-0.1339-0.212-0.24548-0.39052-0.35706l0.0781-0.29011 3.5928 0.90382-0.11158 0.3459c-1.1827 0.08927-2.0977 0.35706-2.7336 0.82571-0.63599 0.45749-1.1046 1.1828-1.4059 2.1535-0.41284 1.3613-0.26779 2.5999 0.45747 3.7268 0.72525 1.127 1.8857 1.9304 3.5035 2.4213 1.629 0.50212 3.0572 0.4798 4.2957-0.0669 1.2274-0.54675 2.053-1.5064 2.477-2.9011 0.15621-0.51328 0.22316-1.0266 0.212-1.5398-0.02232-0.51328-0.12274-0.97076-0.30126-1.3725l-3.1018-0.94845c-0.66946-0.20085-1.1046-0.23432-1.3055-0.08926-0.212 0.14506-0.44631 0.60254-0.71409 1.3613l-0.3682-0.11158 1.5063-4.9096 0.3682 0.11158c-0.15621 0.55791-0.17852 0.95961-0.0781 1.1828 0.10042 0.22316 0.44631 0.43517 1.0377 0.6137zm-5.7685 23.209c0.65831 0.0893 1.1046 0.0446 1.3166-0.14506 0.22315-0.18969 0.40168-0.64718 0.55789-1.3502l0.35705 0.0558-0.60252 4.2848-0.35705-0.0558c0.04463-0.71412-0.01116-1.2051-0.16737-1.4506-0.15621-0.24548-0.56904-0.41285-1.2274-0.50212l-8.3237-1.1716c-0.43515 0.16737-0.75873 0.37938-0.99304 0.62486-0.22316 0.24548-0.37936 0.55791-0.46862 0.92613l-0.35705-0.0558 0.43515-3.0685 9.4506-5.8581-6.4715-0.90381c-0.6583-0.0893-1.1046-0.0446-1.3166 0.14505-0.22316 0.18969-0.40168 0.63602-0.54673 1.3278l-0.35705-0.0558 0.60252-4.2736 0.35705 0.0558c-0.05579 0.71413 0 1.1939 0.15621 1.4394 0.15621 0.24548 0.56904 0.41286 1.2274 0.50212l9.9081 1.3948-0.05579 0.35706-10.723 6.6838zm1.9191 10.076h-0.3682c-0.02231-0.70297-0.13389-1.1716-0.34589-1.4059-0.212-0.23433-0.63599-0.35707-1.272-0.35707h-8.0559c-0.61368 0-1.0377 0.12274-1.2608 0.36822-0.22316 0.24549-0.33473 0.71413-0.35705 1.3948h-0.3682v-5.4675l0.3682 0.0112c0.03347 0.71413 0.14505 1.1828 0.3682 1.4171 0.212 0.23432 0.63599 0.3459 1.2497 0.3459h8.0559c0.62483 0 1.0377-0.12274 1.2608-0.35706 0.22315-0.24548 0.33473-0.71413 0.35705-1.4059l0.3682-0.0112zm-11.783 2.7226 0.35705-0.0223c0.06695 0.68065 0.22315 1.1381 0.46862 1.3502 0.24547 0.22316 0.7141 0.30127 1.4059 0.25664l6.4268-0.44633c1.2162-0.0893 2.1534 0.12274 2.8341 0.6137s1.0488 1.2497 1.1158 2.2651c0.04463 0.63602-0.0781 1.1605-0.34589 1.5845-0.27894 0.42401-0.64715 0.65833-1.1158 0.69181-0.212 0.0112-0.39052-0.0446-0.54673-0.18969-0.14505-0.1339-0.22315-0.32359-0.24547-0.55791-0.01116-0.22317 0.03347-0.42402 0.14505-0.60255 0.11158-0.17853 0.30126-0.32359 0.54673-0.45748 0.02232-0.0112 0.06695-0.0335 0.11158-0.0558 0.49094-0.24548 0.72525-0.51327 0.7141-0.80339-0.02232-0.2678-0.12274-0.45748-0.30126-0.58023-0.17852-0.12274-0.44631-0.16737-0.80336-0.14505l-8.4129 0.59138c-0.7141 0.0446-1.1716 0.20085-1.3836 0.46865-0.212 0.25664-0.2901 0.7476-0.24547 1.4617l-0.3682 0.0223zm13.78 13.089-0.35705 0.0558c-0.12274-0.69181-0.31242-1.1381-0.55789-1.339s-0.68062-0.25664-1.3055-0.15621l-7.9666 1.2609c-0.61368 0.10043-1.0042 0.27896-1.1827 0.55792-0.17852 0.27895-0.22315 0.75876-0.13389 1.4394l-0.35705 0.0558-0.85914-5.4006 0.35705-0.0446c0.14505 0.70297 0.33473 1.1493 0.5802 1.339 0.24547 0.20085 0.68062 0.24548 1.2831 0.14506l7.9666-1.2609c0.61368-0.10042 1.0154-0.27896 1.1827-0.54675 0.17852-0.2678 0.22316-0.7476 0.13389-1.4394l0.35705-0.0669zm3.682 12.709-0.35705 0.0893c-0.212-0.66949-0.44631-1.0935-0.71409-1.2609-0.26779-0.16737-0.70294-0.16737-1.3055 0.0112l-7.7658 2.2205c-0.60252 0.16738-0.97072 0.4017-1.1046 0.68066-0.13389 0.27895-0.12274 0.76991 0.04463 1.4729l-0.34589 0.10043-2.8341-9.875 2.5105-0.89266 0.10042 0.3459c-0.70294 0.33475-1.1381 0.69181-1.3055 1.0935s-0.13389 1.0042 0.10042 1.83l0.83683 2.9234c0.10042 0.35707 0.212 0.56907 0.32357 0.64718 0.11158 0.0781 0.35705 0.0669 0.72525-0.0446l3.1018-0.89266c0.23431-0.0669 0.37936-0.14506 0.43515-0.22316 0.04463-0.0781 0.03347-0.24549-0.03347-0.49097l-0.65831-2.2986c-0.25663-0.90382-0.54673-1.4617-0.84799-1.6626-0.30126-0.212-0.76988-0.24548-1.417-0.0893l-0.10042-0.34591 3.9722-1.1381 0.10042 0.34591c-0.64715 0.23432-1.0488 0.52444-1.205 0.85918-0.15621 0.33475-0.10042 0.94845 0.15621 1.8523l0.66946 2.3209c0.06695 0.22316 0.13389 0.35706 0.22316 0.40169 0.0781 0.0558 0.24547 0.0446 0.49094-0.0335l3.4589-0.99308c0.42399-0.12274 0.68062-0.25664 0.78104-0.4017 0.10042-0.14505 0.10042-0.39054 0-0.71412l-0.76988-2.7003c-0.31242-1.0935-0.69178-1.8411-1.1492-2.2316s-1.1716-0.64718-2.1758-0.75876l0.06695-0.35706 3.0907 0.0893zm5.2664 11.627-0.33473 0.14506c-0.30126-0.63602-0.59136-1.0266-0.88146-1.1493s-0.72525-0.0669-1.2831 0.18969l-7.3864 3.2917c-0.56904 0.25664-0.91493 0.53559-1.0042 0.83687-0.08926 0.30127-0.01116 0.78107 0.24547 1.4394l-0.32357 0.14505-2.3431-5.2667c-0.56904-1.2944-0.7922-2.399-0.63599-3.314 0.15621-0.91498 0.64715-1.5733 1.4951-1.9415 0.5802-0.25664 1.1716-0.29012 1.7629-0.11158 0.60252 0.17853 1.1604 0.58022 1.6737 1.1939-0.22316-0.95961-0.20084-1.763 0.05579-2.4213 0.25663-0.65833 0.73641-1.1381 1.4505-1.4506 1.0711-0.4798 2.0307-0.43517 2.901 0.1339 0.8703 0.55791 1.6625 1.6737 2.3989 3.3252zm-2.9233-2.7226c0.31242-0.1339 0.49094-0.30128 0.53557-0.49097 0.04463-0.18969-0.05579-0.56907-0.31242-1.1493l-0.15621-0.34591c-0.42399-0.9596-0.95956-1.5956-1.6067-1.9192-0.63599-0.31243-1.3501-0.30127-2.1311 0.0446-0.80336 0.35706-1.2831 0.89266-1.4393 1.6179-0.15621 0.72529 0.01116 1.6403 0.5021 2.7338l0.27894 0.6137c0.13389 0.31243 0.25663 0.49096 0.35705 0.52444 0.10042 0.0446 0.26778 0.0112 0.52441-0.10043zm-5.233 2.3321c0.31242-0.14506 0.49094-0.25664 0.53557-0.33475 0.04463-0.0893 0-0.2678-0.12274-0.54675l-0.11158-0.25664c-0.53557-1.1939-1.0935-1.975-1.6737-2.3432s-1.272-0.36822-2.0642-0.0223c-0.75872 0.33475-1.2162 0.82571-1.3612 1.4394-0.14505 0.62486 0.02232 1.4506 0.47978 2.4883 0.26778 0.59138 0.46862 0.92613 0.62483 1.0042 0.15621 0.0781 0.42399 0.0335 0.7922-0.1339zm96.949 39.556v-3.2359c0-0.70296 0.0558-1.2386 0.15621-1.5956 0.10042-0.35707 0.26779-0.69181 0.49094-1.0042 0.35705-0.46865 0.80336-0.83687 1.3278-1.0935s1.0935-0.37938 1.7183-0.37938c1.1492 0 2.0419 0.35707 2.7113 1.06 0.6583 0.71413 0.99304 1.696 0.99304 2.9458v3.3475c0 0.59139-0.0446 1.0824-0.14505 1.4617-0.10042 0.39054-0.24547 0.72528-0.45747 1.0266-0.34589 0.49096-0.7922 0.85918-1.3278 1.127-0.53557 0.26779-1.1269 0.40169-1.7741 0.40169-0.62483 0-1.1939-0.12274-1.7183-0.37938s-0.97072-0.62486-1.3501-1.0935c-0.22316-0.27896-0.37937-0.62486-0.47979-1.0266-0.0893-0.4017-0.14505-0.92613-0.14505-1.5622zm1.06 0.23432c0 0.90382 0.23431 1.6068 0.70293 2.1201 0.46863 0.50212 1.1046 0.75876 1.9303 0.75876s1.4617-0.25664 1.9303-0.7476c0.45746-0.50212 0.69178-1.1939 0.69178-2.0977v-3.7715c0-0.89266-0.23432-1.5845-0.70294-2.0866s-1.1046-0.7476-1.9303-0.7476c-0.82567 0-1.4728 0.25664-1.9303 0.75876-0.46863 0.51328-0.70294 1.2162-0.70294 2.1312v3.6822zm-6.5942-7.3198h1.3389l-2.544 3.95c0.23431-0.0558 0.44631-0.0893 0.64715-0.12274 0.18968-0.0335 0.3682-0.0446 0.52441-0.0446 0.99304 0 1.8076 0.34591 2.4547 1.0377s0.97072 1.5622 0.97072 2.5999c0 1.0712-0.35705 1.9638-1.06 2.6668-0.70294 0.70297-1.5956 1.06-2.6779 1.06-1.06 0-1.9414-0.3459-2.6332-1.0377-0.70294-0.69181-1.0488-1.551-1.0488-2.5664 0-0.87035 0.44631-1.9973 1.3501-3.3921 0.0893-0.1339 0.15621-0.23433 0.20084-0.31243zm-0.25663 4.7422c-0.74756 0-1.3724 0.25664-1.8856 0.78108-0.5021 0.52443-0.75873 1.1604-0.75873 1.9192 0 0.76992 0.25663 1.4171 0.78104 1.9527 0.52442 0.5356 1.1492 0.80339 1.8857 0.80339 0.71409 0 1.3166-0.25664 1.7964-0.76991 0.47979-0.51328 0.72526-1.1716 0.72526-1.9638 0-0.79224-0.23432-1.4394-0.7141-1.9527-0.49094-0.51328-1.0935-0.76992-1.8299-0.76992zm-9.9192 6.1928h-1.3389l2.544-3.9612c-0.23431 0.0558-0.44631 0.0893-0.64715 0.12274-0.18968 0.0335-0.3682 0.0446-0.53557 0.0446-0.99304 0-1.8076-0.3459-2.4547-1.0377s-0.97072-1.5622-0.97072-2.5999c0-1.0712 0.34589-1.9638 1.0488-2.6668 0.70293-0.70296 1.5844-1.06 2.6667-1.06 1.06 0 1.9414 0.34591 2.6444 1.0377 0.70294 0.69181 1.06 1.5398 1.06 2.5552 0 0.8815-0.44631 2.0085-1.3501 3.3921-0.0893 0.1339-0.14505 0.23432-0.18968 0.31243zm0.25662-4.7534c0.74757 0 1.3724-0.25664 1.8857-0.78107 0.5021-0.52444 0.75872-1.1605 0.75872-1.9192 0-0.76991-0.25662-1.4171-0.78104-1.9415-0.51325-0.52443-1.1492-0.79223-1.8856-0.79223-0.7141 0-1.3166 0.25664-1.7964 0.76992-0.47978 0.51327-0.72525 1.1604-0.72525 1.9527 0 0.79224 0.23431 1.4394 0.7141 1.9527 0.49094 0.50212 1.0934 0.75876 1.8299 0.75876zm-8.7588 4.7534h-1.1381v-9.9866h-1.908v-0.93729h3.0461zm93.892-166.02c-20.318-20.319-48.391-32.883-79.398-32.883-31.007 0-59.08 12.564-79.398 32.883-20.318 20.319-32.882 48.393-32.882 79.402 0 31.009 12.564 59.083 32.882 79.402 20.318 20.319 48.391 32.883 79.398 32.883 31.007 0 59.08-12.564 79.398-32.883 20.318-20.319 32.882-48.393 32.882-79.402 0-31.009-12.564-59.083-32.882-79.402zm-79.398-37.559c32.29 0 61.535 13.089 82.701 34.256s34.254 50.402 34.254 82.705c0 32.292-13.088 61.538-34.254 82.705s-50.399 34.256-82.701 34.256c-32.29 0-61.535-13.089-82.701-34.256s-34.254-50.402-34.254-82.705c0-32.292 13.088-61.538 34.254-82.705s50.411-34.256 82.701-34.256zm-47.621 76.713 80.559-0.15622c12.34 0.31243 17.997 10.321 16.681 19.304-0.92609 6.2821-6.438 11.303-8.7142 11.839 6.2372 1.8188 11.002 6.9739 11.928 13.133 2.1423 14.193-10.767 19.371-15.264 19.226l-85.446 0.0112 0.17852-8.815 62.439 0.0558c12.653-1.2051 10.321-15.856 0-16.179l-62.316 0.15622-0.04463-8.324 61.691 0.22317c7.6765-0.75876 11.894-9.9866 9.3836-15.8l-48.536 0.03348v-3.314l46.427 0.10042c-2.12-2.4883-6.7839-3.8273-10.834-3.738l-58.21 0.03348zm22.661 48.739h26.812l0.0669-4.2066h-26.812zm0-24.347h26.801l0.0669-4.2066h-26.812zm65.619 64.394c-0.25663-0.70297-1.3836-0.8815-2.0753-0.43517-1.0488 0.66949-1.5286 1.9638-2.6667 2.5887-0.30125 0.16737-0.59136 0.71412-1.0711 0.43517-0.40168-0.32359-0.0781-1.1158-0.0781-1.6737 0.0112-1.3501 0.26778-2.5441 0-3.9054-0.22316-1.1158-3.2692-3.035-4.4185-3.2247-0.10042 0.0558-0.212 0.11158-0.32357 0.15621-1.205 2.0643 0.25662 2.8565 0.8703 4.2959 0.39052 0.91497 0.97072 6.0589 0.51325 6.9627-0.31241 0.63602-2.053 1.4394-2.7113 1.8746-1.5398 1.0266-3.1688 2.1089-4.9317 2.8677-0.72525 0.29011-1.4617 0.58022-2.1869 0.8815-0.54673 0.14505-0.92609-0.0558-1.3166 0.20084-0.51325 2.4771 0.61368 3.4702 2.9903 2.6668 1.484-0.50212 2.6778-1.7072 3.7044-2.7114 0.88146-0.85918 2.5663-2.0978 3.6597-2.7114 0.0893 0.0112 0.18969 0.0223 0.27895 0.0446 0.44631 0.72529-0.14505 1.8634-0.47978 2.5441-0.97073 1.9973-2.5105 3.5706-4.6974 4.2959-1.0711 0.35706-2.689-0.0669-3.1465 0.9596 0.0446 0.0893 0.0781 0.18969 0.12274 0.27896 0.93725 0.23432 2.3766 0.11158 3.3473-0.0446 0.27894 0.0223 0.55788 0.0558 0.83683 0.0781 2.9568-0.65833 4.3292-1.6291 5.7351-3.8607 0.31241-0.49096 0.80335-1.0712 0.95956-1.6737 0.34589-1.4171 0.46863-2.7114 0.88146-3.9835 0.14505-0.44633-0.0335-1.0377 0.20084-1.3502 0.44631-0.60254 1.2831-1.0377 1.9861-1.3948 0.39052-0.32359 0.76988-0.63602 1.1492-0.95961 0.56905-0.41286 1.1827-0.70297 1.7071-1.1158 0.47979-0.34591 1.5398-1.06 1.1604-2.0866zm-30.728 5.3002c-0.16737-0.0781-0.20084-0.0669-0.27894-0.23432-0.34589-1.2386 1.6737-2.4883 2.5105-2.7449 0.47978-0.14506 0.61367 0.14506 1.1492-0.20085 0.26779 0.0112 0.30126 0.0223 0.35705 0.23432 0.13389 0.55791-3.113 2.6668-3.7378 2.9458zm0.63599-5.5345c-0.0558 0.0781-0.0446 0.0669-0.12273 0.12274-0.0781-0.0558-0.0669-0.0335-0.12274-0.12274-0.0223-0.14506-0.0558-0.29012-0.0781-0.43518l0.12273-0.15621c0.0781 0.0112 0.15621 0.0223 0.23431 0.0446 0.0446 0.17853 0.0558 0.4017-0.0335 0.54676zm-0.24547-2.2316c0.16737-0.35706 0.63599-0.50212 0.95957-0.71413h0.12273c0.2901 0.50212-0.24547 1.0377-0.60252 1.272h-0.40167c-0.11158-0.16737-0.17853-0.3459-0.0781-0.55791zm0.32357 20.464c-0.30125 0.31243-0.71409 0.37938-1.3501 0.35707-0.0893-0.12274-0.18968-0.23433-0.27894-0.35707 0.10042-0.68065 0.64715-0.89265 1.0711-1.2386h0.27894c0.0223 0.0112 0.0558 0.0223 0.0781 0.0446 0.17852 0.29012 0.21199 0.6695 0.20083 1.1939zm4.6974-24.481h0.12273c0.32358 0.72528-1.1939 1.7742-1.5509 2.2316h-0.23431c-0.81452-1.3167 1.0265-1.7742 1.6625-2.2316zm7.3195 2.7784c-0.51326-0.91498-1.5286-0.85919-2.5105-0.47981-0.63599 0.24548-1.0154 0.70297-1.5174 1.0377-1.0711 0.70297-2.2204 1.272-3.3027 1.9081-0.41284 0.24548-1.9972 1.3055-2.2316 0.88149-0.21199-0.52443 0.0893-1.7853 0.40168-1.9862 0.41284-0.12274 0.82567-0.23432 1.2385-0.35706 1.5844-0.65834 4.173-2.3879 4.7755-3.9835-0.27895-0.76992-1.6514-1.8411-2.7894-1.6291-0.91494 0.16737-1.6402 0.82571-2.3096 1.272-0.82568-0.12274-0.0112-2.1312-1.8299-2.1535-0.69178 0.70297-0.73641 1.5287-0.63599 2.7114 0.0223 0.22316 0.0558 0.44633 0.0781 0.68065-0.15621 0.64718-1.0488 1.3502-1.4728 1.7965-0.0893-0.0112-0.18968-0.0223-0.27894-0.0446-0.54673-1.2497-0.53557-2.9569-2.3431-2.3432-0.26779 0.46864 0.15621 0.85918 0 1.5175-0.14505 0.39054-0.2901 0.76992-0.43515 1.1493-0.10042 0.42401 0.0446 0.92613-0.15621 1.2386-0.68062 1.0266-2.6667 0.94845-3.7044 1.6291-0.27894 1.0712 1.5174 2.2316 2.7113 2.0308 0.55789-0.0893 0.73641-0.40169 1.2385-0.51328 0.45746 0.33475 0.91493 1.1047 1.8299 0.91498 0.39052-0.0781 0.55788-0.32359 1.0377-0.35707h0.0446c0.0781 0.12274 0.15621 0.21201 0.0781 0.4017-0.31242 0.5356-2.9456 1.6179-3.6597 2.0308-1.6067 0.91497-3.3473 1.7965-4.8982 2.7896-0.95956 0.61371-1.841 1.5064-2.8229 2.1089-0.82567 0.50212-3.7044 1.7072-3.3808 2.9904 0.0669 0.11158 0.13389 0.21201 0.20084 0.32359 0.62483 0.14506 1.0823-0.0112 1.6737-0.12274 0.72525-0.12274 1.4617-0.23432 2.1869-0.35706 1.5063-0.59139 2.332-1.9638 3.5482-2.823 0.60251-0.43518 1.1716-0.76992 1.7964-1.1939 0.61368-0.41286 1.1492-1.272 2.0753-1.3167l0.12273 0.12274c-0.2901 1.0377-0.7922 1.5733 0 2.5887 1.2943 0.2678 1.4728-1.1493 2.1869-1.7072 0.49094-0.37938 0.9484-0.68066 1.5509-0.95961 0.24547-0.11158 0.40168-0.27896 0.75873-0.20085 0.0669 0.0446 0.13389 0.0781 0.20083 0.12274-0.0893 0.33475-0.51325 0.32359-0.79219 0.43517-0.212 1.1605-0.52442 1.6737-1.4282 2.0754-0.43515 0.18969-0.74757 0.18969-0.95957 0.59139l-0.0446 0.23432c0.68062 0.71413 0.93725 0.22316 1.629 0.63602 0.12273 0.0669 0.13389 0.11158 0.20084 0.23432-0.0223 0.12274-0.0558 0.23432-0.0781 0.35706-0.17852 0.24549-0.99303 0.27896-1.272 0.4017-0.40167 1.1381 0.87031 1.127 1.2385 1.83 0.0112 0.0893 0.0223 0.18969 0.0446 0.27895-0.23431 0.23433-1.0823 0.54676-1.1939 0.83687-0.30126 0.76992 1.5063 1.3948 0.63599 2.3544-0.24547 0.26779-3.2246 1.2497-3.7825 1.3501-0.39052 0.0781-0.70294-0.212-1.0377 0-1.5956 0.99308 1.0823 2.9792 2.0307 3.0685 0.64715-0.6137 0.39053-1.6403 1.1492-2.0643 0.80336 0.0781 1.9303 0.72529 2.5105 1.1493 0.212 0.23432 0.42399 0.4798 0.63599 0.71413 1.8633 0.36822 0.75872-1.3836 1.1939-2.2651 0.25662-0.5356 2.901-1.6514 3.6597-1.83 0.7922-1.3278-0.8703-2.5999-1.7071-2.9123-0.97072 0.4798-0.60252 2.466-1.629 2.9904-0.0893 0.0112-0.18968 0.0223-0.27894 0.0446l-0.12274-0.12274c-0.24547-1.7853 0.39052-3.3475 0.91494-4.6195 0.26778-0.64717 1.06-1.6068 0.91493-2.5441-0.0781-0.4017-0.15621-0.79224-0.23431-1.1939-0.16737-0.24548-0.54673-0.18969-0.7922-0.35707-0.22316-0.37938-0.44631-0.76991-0.68062-1.1493v-0.0446c0.22315-0.0335 0.2901 0.067 0.51325 0.12274 0.0781-0.0669 0.15621-0.13389 0.23431-0.20084 0.0893-0.55791-0.24547-0.98193 0.0446-1.4283 0.13389-0.22316 0.39052-0.27895 0.60251-0.43517 0.89262-0.65833 2.5216-1.6068 3.0238-2.5887-0.0335-0.8034-1.3612-1.7407-2.3878-1.2386-0.31241 0.15622-0.39052 0.4017-0.83683 0.55791h-0.12273l0.0446-0.20084c0.90378-0.56907 1.9191-1.3948 3.0237-1.7072 0.27895 0.0446 0.55789 0.0781 0.83683 0.12274 0.51326-0.23432 1.0377-0.47981 1.5509-0.71413 0.83683-0.25664 1.2162 0.10043 1.9861-0.40169 0.43515-0.35707 1.8745-1.0712 1.3055-2.0866zm25.44 13.022c-0.23431 0.15622-0.47978 0.32359-0.71409 0.47981-0.0669 0.33475-0.1339 0.65833-0.20084 0.99308-0.32358 0.7476-1.2943 1.8746-0.99304 2.8677 0.22315 0.47981 1.4059 1.4059 2.1534 1.1939 1.3836-0.59138 2.1981-5.5903-0.24547-5.5345zm12.43-8.7592c-0.13389-0.0781-0.26779-0.15622-0.40168-0.23432-0.20084-0.7476 0.0781-1.3613 0.55789-1.6737h0.20084c0.43515 0.64718 0.25662 1.6737-0.35705 1.9081zm5.0544-0.35706c-0.70294 0.37938-0.60252 1.3836-1.7518 1.4282-0.0223-0.0112-0.0558-0.0223-0.0781-0.0446-0.23431-1.0824 0.90378-2.0196 1.3947-2.7114 0.1562-0.30127 0.32357-0.61371 0.47978-0.91498 0.14505-0.12274 0.2901-0.23432 0.43515-0.35706 0.0446-0.16737 0.0781-0.34591 0.12274-0.51328 0.4463-0.71412 1.3054-1.4729 1.5509-2.3544 0.212-0.76992-0.12274-1.272-0.23431-1.83-0.74757-0.44633-1.7518-0.24548-2.6667-0.0781-0.14505 0.35706-0.2901 0.71413-0.43515 1.0712 0.15621 0.2678 0.32357 0.53559 0.47978 0.79223 0.14505 0.58023-0.33473 1.0154-0.47978 1.3502-0.55789 1.2609-1.0935 2.4325-1.7964 3.5037-0.0446 0.0223-0.0781 0.0558-0.12273 0.0781-0.18968-0.59139-0.0669-1.2386 0.0335-1.83-0.23431-0.44633-1.1381-0.58023-1.1939-0.83687 0.0558-0.16737 0.10042-0.3459 0.1562-0.51328 0.24547-1.0377-0.17852-1.5956-1.0711-1.7965-0.0893-0.1339-0.12273-0.18969-0.12273-0.43517 1.0488-1.0266 1.3389-2.2093 0.0781-3.2247-0.44631-0.35706-0.81451-0.70297-1.6737-0.68065-0.22315 0.1339-0.43515 0.15622-0.55788 0.4017-0.24547 0.65833 0.50209 0.92613 0.35704 1.5175-0.0781 0.29011-0.8703 1.9638-1.0711 2.2316-0.44631 0.58023-1.7964 0.41285-2.3543 1.1158-0.0112 0.067-0.0223 0.1339-0.0446 0.20085 0.2901 0.41286 0.97072 0.36822 1.1939 0.79223v0.12275c-0.22316 0.56906-0.80336 0.90381-1.1492 1.3501v0.4017c0.0112 0.0446 0.0223 0.0781 0.0446 0.12274 0.12274 0.0112 0.23432 0.0223 0.35705 0.0446 0.41284-0.25664 0.82567-0.50212 1.2385-0.75876 0.35705-0.10042 0.71409-0.21201 1.0711-0.32359 0.26779-0.18969 0.212-0.46864 0.63599-0.55791h0.0446c0.27894 0.6137-0.49094 1.8634-0.7922 2.2651-0.5802 0.11158-1.3278-0.0112-1.7964 0.20085-0.0781 0.31243-0.17853 0.62486-0.12274 0.95961 0.33474 0.17853 0.74757 0.24548 0.91494 0.60254 0.27894 0.91497-1.3166 2.3655-1.4282 3.2247 0.0558 0.0223 0.10042 0.0558 0.15621 0.0781 0.78104 0.30128 2.8452-1.6179 3.18-2.0643 1.2497 0.0223 1.4059 0.067 2.1534-0.4798h0.20084c0.25663 0.23432 0.66946 0.6137 0.51325 1.1158-0.30125 0.63602-1.2608 0.76992-1.908 1.0712-1.1381 0.52444-4.5189 2.9569-5.9359 2.5887-0.16736-0.33475-0.0781-0.95961-0.20084-1.3502-0.41283-1.3501-1.5956-3.5372-3.2246-3.5483-0.54673 0.54675 0.212 1.1939 0.35705 1.7965 0.55788 2.3544-0.17853 2.678 2.265 3.4256 0.0893 0.17853 0.0669 0.27895 0 0.4798-0.23432 0.14506-0.63599 0.24548-0.7922 0.4798-0.0112 0.0781-0.0223 0.15622-0.0446 0.23433 0.34589 0.3459 2.756 0.66949 3.3027 0.27895 1.5174-1.0823 2.9345-2.2093 4.5747-3.2247 0.35705-0.23433 0.7141-0.47981 1.0711-0.71413 0.17853-0.0112 0.34589-0.0223 0.51326-0.0446 0.5021-0.21201 1.4617-1.1381 2.0753-0.95961l0.1562 0.12274c-0.23431 1.8411-4.1953 3.8719-5.4561 5.1774v0.20084l0.0446 0.0446c1.3054-0.15622 2.4212-0.99308 3.4589-1.4283 0.63599-0.13389 1.272-0.26779 1.908-0.40169 1.9749-0.82571 3.2023-2.4325 4.385-4.0616 0.212-0.29011 0.64715-0.39053 0.7922-0.75875 0.51325-1.1716-1.908-2.7449-3.1911-2.0754zm-1.629 11.471c-0.212-0.10042-0.43515-0.39054-0.83683-0.27896-0.99304 0.2678-1.8076 1.9415-3.1465 1.5956-0.41283-0.81455 0.90378-1.2832 0.63599-2.3879-0.2901-1.1604-2.1981-1.272-3.5035-1.3948l-0.20084 0.12274c-0.78104 2.0643 0.74756 1.5733 1.2385 2.5106 0.14506 0.41286-0.37936 0.98193-0.47978 1.4283-0.0669 0.3459-0.0112 0.73644-0.0781 0.99308-0.75873 0.49096-1.6179 0.81455-2.4324 1.3167-0.14505 0.1339-0.2901 0.2678-0.43515 0.40169-0.72525 0.33475-1.7852 0.16738-2.3096 0.68066v0.15621c0.69178 0.59139 2.2092 1.2497 3.6263 0.83687 0.68063-0.33475 1.3501-0.65834 2.0307-0.99308 0.12274 0.0669 0.13389 0.0669 0.20084 0.20084 0.11158 0.32359-0.12274 0.75876-0.20084 1.0377-0.82567 2.8454-3.2469 0.3459-5.2107 1.1939l-0.0446 0.12274c0.10042 1.339 3.7602 2.4548 5.3334 1.83 1.0488-0.41286 2.9568-1.7518 2.5886-3.459-0.14505-0.70297-0.53557-1.551-0.68062-2.1089 0.16736-0.26779 0.35704-0.43517 0.68062-0.55791h0.20084c0.0669 0.37938-0.24547 0.47981-0.32358 0.83687 0.5802 0.10042 0.83683-0.46865 1.1939-0.71413 0.44631-0.31243 0.91493-0.70296 1.4282-0.91497 0.70293-0.29011 1.4728-0.39054 2.0307-0.79223 0.22316-1.0266-0.60251-1.3502-1.3054-1.6626zm-20.385 0.0781c-0.31241-0.46865-2.3096-1.3278-2.9903-1.5956-0.62483-0.24548-0.78104-0.69181-1.7964-0.68065-0.25663 0.0669-0.5021 0.1339-0.75873 0.20085-0.71409 1.1381 0.49094 1.8188 0.95957 2.5106 0.41283 0.6137 0.33473 1.2609 0.68062 1.9527 0.54673 1.1158 2.4212 1.1158 3.9052 0.83686 0.56905-0.84802 0.56905-0.94844 0.32358-2.0308-0.11158-0.45749-0.10042-0.85919-0.32358-1.1939zm-51.326-7.688c-0.21199 0.15622-0.42399 0.32359-0.63599 0.47981-0.56904 0.33474-1.2162 0.53559-1.7518 0.83686-1.3278 0.55791-2.6555 1.1158-3.9833 1.6737l-0.12273-0.0446c-0.13389-0.32359 0.66946-1.9527 0.88146-2.3879 0.37936-0.76991 0.76988-1.5398 1.1492-2.3098 0.7141-1.0824 1.7071-2.1312 2.1088-3.5037 0.39053-1.3278-1.8968-2.6222-3.18-2.5887-1.1604 0.52444-2.6221 0.52444-4.2622 0.51328h-1.7071c-0.35705 0.18969-0.7141 0.36822-1.0711 0.55791-0.5802 1.0042 2.2204 3.9612 3.7044 3.6599 0.87031-0.17853 1.272-1.0824 1.9526-1.4283l0.23432-0.0446c0.25662 0.6137-0.32358 1.339-0.51326 1.7965-0.59136 1.4282-0.80335 2.8007-1.1158 4.6195-0.10042 0.58023-0.40168 1.3502-0.0446 1.7965-0.11158 0.79224-2.2873 1.272-2.9903 1.6291-1.7518 0.89266-3.537 1.7853-5.4896 2.5106-1.1269 0.42401-3.3473 0.91497-3.8606 1.8299 0.14505 1.2497 2.2539 2.9011 3.8271 1.9527 2.6667-1.6179 5.4003-3.1355 8.0447-4.8204 0.70294-0.44633 2.3431-1.8523 3.2246-1.8746l0.0446 0.0446v0.12274c-0.33473 0.29012-0.60252 0.51328-0.88146 0.87034 0.0781 0.15622 0.0781 0.15622 0.23431 0.23433 1.2162-0.55791 2.5551-1.272 3.8271-1.7518 0.40168-0.0669 0.7922-0.1339 1.1939-0.20085 1.3278-0.45749 3.0349-1.0712 3.7825-2.1089 0.12274-0.87034-1.4393-2.3432-2.5998-2.0643zm-25.953-0.63602c0.14505-0.68065 1.484-2.3321 2.0753-2.5441 0.54673-0.8815-0.40168-1.9192-1.272-1.9081-0.69178 0.33475-0.99304 0.81455-1.5956 1.1493-1.2274 0.71412-2.4435 1.4171-3.6597 2.1089-0.45747 0.25664-1.7183 0.68065-1.9526 1.0712l-0.04463 0.23432c1.3947 0.87035 2.2539-0.66949 3.6263-0.60254 0.27894 0.43517-0.01116 1.0042-0.35705 1.272-1.2162 0.94845-2.265 1.8076-3.1465 3.102h-0.0781c-0.22315-0.3459-0.44631-0.69181-0.68062-1.0377-0.32357-0.4017-0.70294-0.55791-0.95956-1.0712-0.7922-0.0223-1.5286 0-1.7964 0.51328 0.10042 0.97076 0.7922 1.7853 1.0377 2.6668 0.0781 0.34591 0.15621 0.69181 0.23431 1.0377 0.43515 0.21201 0.88146 0.42401 1.3166 0.63602 0.91493-0.0446 0.94841-0.59139 1.3166-1.1939 0.24547-0.32359 0.82567-0.0558 1.2385-0.23432 0.46862-0.33475 0.92609-0.65834 1.3947-0.99309 0.54673-0.23432 1.0935-0.4798 1.629-0.71412 0.64715-0.47981 1.3836-1.5845 1.6737-2.3879 0.14505-0.39054-0.10042-0.64718 0-1.1047zm4.2623-9.3952c-1.7741-0.73644-2.9122 1.0377-3.8271 0.63602-0.42399-0.22317-0.46862-0.81455-0.99304-0.99309l-2.0307-0.12274c-0.51326-0.12274-1.0935-0.27895-1.7518-0.27895-0.27894 0.18969-0.47978 0.27895-0.63599 0.59138 0.16737 1.7407 1.4282 1.696 1.9861 2.7896 0.01116 0.0781 0.02231 0.15622 0.04463 0.23432-0.43515 0.43517-1.0265 0.68066-1.5509 1.0377-0.64715 0.43517-1.272 1.0824-1.9526 1.4729-0.73641 0.43517-1.6848 0.60255-2.0307 1.3948-0.01116 0.11158-0.02231 0.21201-0.04463 0.32359 0.27894 0.21201 0.5802 0.43517 0.99304 0.51328 0.42399 0.0893 3.0795-0.62486 3.4589-0.79224 0.56904-0.24548 0.94841-0.93729 1.3947-1.3167 0.85914-0.73644 1.7406-1.127 2.8229-1.6737 0.8703-0.44633 1.3724-1.2832 2.5105-1.551l1.0711 0.20085c0.34589-0.32359 1.4951-1.2162 1.1939-1.9527-0.11158-0.33475-0.33473-0.37938-0.65831-0.51328zm-38.74 17.675c0.23431 1.7184-1.5956 3.1466-1.1158 4.4633 0.212 0.0223 0.42399 0.0558 0.63599 0.0781 0.5021-0.44633 1.0711-1.06 1.4393-1.6291 0.18968-0.29011 0.212-0.59138 0.47978-0.79223 0.99304-0.79224 2.1869-1.2832 2.7894-2.466 0-1.4952-2.2873-2.6222-3.8606-2.5887-0.5021 0.14506-1.0042 0.29012-1.5175 0.43517-0.99304 1.6068 0.98188 1.2497 1.1492 2.4994zm6.0475-19.94c-1.1716 0.64718-0.54673 1.908-0.27894 2.9904-0.05579 0.63602-0.10042 1.272-0.15621 1.9081-0.43515 2.6222-1.0935 5.8581-0.88146 8.882 0.01116 0.92613 0.02231 1.8634 0.04463 2.7896 0.13389 0.84803 0.42399 3.2694 0.20084 4.0616-0.23431 0.82571-1.1604 1.1381-1.5956 1.7518-0.91493 1.2944-2.2427 2.5664-3.5482 3.459-1.3389 0.92613-2.7002 1.7184-2.9903 3.7045 0.33473 0.50212 0.39052 0.4798 1.0377 0.71412 0.32357 0.11158 0.55789 0.47981 1.1158 0.35707 1.2608-0.27896 3.325-3.2247 3.9833-4.2959 0.2901-0.4798 0.34589-1.1605 0.63599-1.5956 0.32357-0.46864 0.90378-1.83 1.6737-1.6291 0.42399 0.2678 0.82567 1.5287 1.7071 1.0377 0.52441-0.25664 0.73641-1.7184 0.55789-2.5106-0.20084-0.90382-0.49094-1.9527-0.68062-3.0239-0.11158-0.65834 0.18968-1.0377 0.0781-1.6737-0.05579-0.42401-0.10042-0.84802-0.15621-1.272 0.41284-2.3209 0.47978-4.5749 1.1492-6.5722 0.52441-1.5622 1.4282-2.9346 1.7964-4.5414 0.13389-0.55792-0.212-0.91498-0.32357-1.272-0.43515-1.5733-1.3836-3.2805-3.3696-3.2694zm30.059 18.712c-0.61368-0.82571-0.98188-1.8857-2.4324-1.8746-0.0781 0.0669-0.15621 0.1339-0.23431 0.20085-0.11158 0.45748-0.08926 1.127 0 1.6291 0.08926 0.51328-0.22316 0.89266-0.12274 1.272 0.12274 0.18969 0.23431 0.36823 0.35705 0.55792 0.51326 0.97076 0.75872 1.5845 1.6737 2.1535 1.1046-0.0112 2.4324-1.0489 1.908-2.3544-0.25663-0.64718-0.76988-1.0824-1.1492-1.5845zm-9.194 4.2624c-0.44631-0.37938 1.3947-1.5064 1.7071-1.7072 1.1939 0.0781-0.91493 2.0531-1.7071 1.7072zm4.3404-4.586c-0.14505-0.33475-0.45747-0.53559-0.95956-0.51328-0.15621 0.0446-0.32357 0.0781-0.47978 0.12274-0.70294 0.35707-0.47978 1.7295-1.1604 2.0754-0.212 0.0446-0.42399 0.0781-0.63599 0.12274-0.53557 0.25664-1.1827 0.54676-1.7518 0.8815-1.3724 0.79224-2.6444 1.8523-3.9833 2.6668-0.46862 0.25664-0.92609 0.50212-1.3947 0.75876-0.23431 0.212-0.47978 0.42401-0.7141 0.63602-0.39052 0.22316-0.90378 0.20085-1.1939 0.51328-0.18968 1.5622 1.1381 3.2582 3.18 2.4325 0.43515-0.17853 2.4101-2.7896 2.5886-3.3028 0.32357-0.17853 0.7141-0.0558 1.1939-0.15621 0.95956-0.21201 1.8857-0.44633 2.9903-0.27896 0.78104 0.11159 1.908 0.39054 2.2315-0.15621 0.60252-1.06-0.0781-2.6222-0.0781-3.7045 0.01116-0.65834 0.42399-1.5956 0.16737-2.0978zm-16.402 1.7965c-0.04463-0.12274-0.0781-0.23433-0.12274-0.35707 0.49094-1.2051 1.3612-2.3767 1.7964-3.5483 0.18968-0.51328 0.16737-0.98193 0.43515-1.3948 0.64715-0.95961 2.5886-1.1493 2.9903-2.3098 0.20084-0.58023-0.02232-1.4617-0.40168-1.7072-0.23431-0.15622-0.62483-0.0669-0.75873-0.32359-0.26778-0.49096 0.43515-1.3948 0.60252-1.7072 0.97072-1.908 0.20084-5.7688-1.9526-5.7688-0.5021 0.27896-1.3055 0.84803-1.4282 1.4729-0.01116 0.46864-0.02232 0.92613-0.04463 1.3948-0.45747 1.4729-1.06 3.2247-1.629 4.653-0.33473 0.83687-0.45747 1.7407-0.91493 2.4325-0.46862 0.71412-1.1939 1.2497-1.908 1.7072-0.16737 0.0781-0.34589 0.15622-0.51326 0.23433-0.02232 0.14505-0.05579 0.29011-0.0781 0.43517 0.26778 0.17853 0.60252 0.23432 1.0377 0.27895 0.34589 0.59139-0.18968 1.2497-0.40168 1.7965-0.55789 1.484-2.6444 4.7869-0.7922 6.137 0.3682 0.2678 0.92609 0.4017 1.4282 0.20085 0.69178-0.2678 1.3836-0.5356 2.0753-0.79224 1.3166-0.39053 3.5482-0.41285 3.8606-1.7518 0.08926-0.36822-0.12274-0.64717-0.23431-0.83686-0.99304-1.484-1.841-0.1339-3.0461-0.24548zm106.18-9.0828 0.0446 0.0446c0.47978-0.0446 2.5886-0.12274 2.8229-0.40169 0.0893-0.46865 0.12274-1.0935-0.0446-1.5175-0.37936-0.97077-2.2873-3.2247-3.5482-3.2694-0.0669 0.0558-0.13389 0.10042-0.20084 0.15622-0.33473 1.3278 0.58021 2.8565 1.2385 3.6264-0.0893 0.51328-0.31242 0.78107-0.31242 1.3613zm-52.843-176.41c69.033 0 125 55.958 125 124.99 0 69.036-55.967 125.01-125 125.01-69.033 0-125-55.97-125-125.01 0-69.025 55.967-124.99 125-124.99z"/>
</svg>
