<?xml version="1.0" encoding="UTF-8"?>
<svg id="a" data-name="图层 1" xmlns="http://www.w3.org/2000/svg" viewBox="0 0 590.59 590.59">
  <circle cx="295.3" cy="295.3" r="295.3" style="fill: #0096c3;"/>
  <circle cx="294.5" cy="296.23" r="276.45" style="fill: #0096c3; stroke: #fff; stroke-miterlimit: 10; stroke-width: 10.23px;"/>
  <g>
    <path d="M116.83,191.1s150.13-61.79,356.94-3.57c0,0-165.45-108.77-356.94,3.57Z" style="fill: #fff; fill-rule: evenodd;"/>
    <polygon points="294.27 103.27 285.47 132.38 303.21 132.38 294.27 103.27" style="fill: #fff; fill-rule: evenodd;"/>
    <path d="M274.61,162.9l-51.91,133.56s64.17-163.74,153.02,0l-64.09-133.56-11.74-6.65-25.28,6.65Z" style="fill: #fff; fill-rule: evenodd;"/>
    <polygon points="183.3 136.47 179.98 155.36 187.3 151.1 183.3 136.47" style="fill: #fff; fill-rule: evenodd;"/>
    <path d="M176.98,174.26l-16.24,77.61s16.34-93.11,76.77-6.47l-43.04-74.43-10.83-1.49-6.65,4.78Z" style="fill: #fff; fill-rule: evenodd;"/>
    <polygon points="409.04 136.02 405.15 149.04 411.66 154.27 409.04 136.02" style="fill: #fff; fill-rule: evenodd;"/>
    <path d="M394.92,170.31l-41.54,71.34s56.72-87.83,76.47,7.49l-13.96-75.22-7.49-9.89-13.48,6.27Z" style="fill: #fff; fill-rule: evenodd;"/>
  </g>
  <g>
    <path d="M41.54,283.1l.83,2.93c-.95,.33-1.65,.77-2.11,1.32s-.69,1.31-.71,2.28c-.01,.9,.2,1.6,.65,2.09,.45,.5,.97,.75,1.56,.76,.65,.01,1.18-.26,1.57-.8s.88-1.63,1.44-3.27c.48-1.39,.94-2.47,1.37-3.22,.43-.75,1-1.35,1.7-1.81,.71-.46,1.52-.68,2.44-.67,1.49,.02,2.75,.66,3.79,1.9,1.03,1.24,1.53,2.97,1.49,5.18-.06,3.81-1.75,6.15-5.08,7l-.69-3.07c2.19-.5,3.31-1.88,3.35-4.13,.02-1.1-.21-1.94-.7-2.52-.48-.58-1.08-.87-1.8-.88-.53,0-1.02,.18-1.48,.57-.46,.39-.95,1.36-1.49,2.91-.56,1.65-1.04,2.83-1.42,3.56s-.95,1.34-1.68,1.84c-.74,.5-1.57,.75-2.5,.73-1.41-.02-2.59-.61-3.54-1.77s-1.4-2.69-1.37-4.59c.05-3.36,1.52-5.48,4.4-6.36Z" style="fill: #fff;"/>
    <path d="M37.73,278.67l1.12-14.09,2.49,.2-.41,5.16,15.22,1.21-.3,3.82-15.22-1.21-.41,5.12-2.49-.2Z" style="fill: #fff;"/>
    <path d="M39.45,259.37l.58-3.7,10.89,1.7c1.22,.19,2.13,.25,2.73,.17s1.12-.39,1.56-.93c.43-.54,.73-1.32,.89-2.34,.15-.96,.13-1.73-.07-2.31-.19-.58-.53-1.02-1-1.32-.48-.3-1.47-.57-2.98-.81l-10.84-1.7,.53-3.4,10.7,1.67c1.71,.27,3.01,.63,3.89,1.1,.88,.46,1.53,1.32,1.96,2.57s.49,2.85,.19,4.79c-.24,1.51-.63,2.79-1.19,3.84s-1.3,1.79-2.25,2.23c-.94,.44-2.51,.48-4.69,.14l-10.89-1.7Z" style="fill: #fff;"/>
    <path d="M43.27,237.1l1.26-5.06c.61-2.45,1.43-4.32,2.46-5.62,1.03-1.3,2.3-2.16,3.8-2.59,1.5-.43,3.05-.44,4.65-.04,1.68,.42,3.1,1.13,4.25,2.13s1.96,2.3,2.42,3.89c.46,1.59,.37,3.67-.27,6.24l-1.33,5.34-17.24-4.29Zm3.21-3.15l12.67,3.15,.39-1.55c.54-2.17,.36-3.88-.55-5.14-.91-1.26-2.32-2.14-4.24-2.61-4.23-1.05-6.85,.48-7.88,4.6l-.39,1.55Z" style="fill: #fff;"/>
    <path d="M48.53,217.16l3.68-11.25,2.24,.73-2.62,8,4.83,1.58,2.05-6.27,2.25,.74-2.05,6.27,5.28,1.73,2.66-8.13,2.29,.75-3.72,11.38-16.89-5.52Z" style="fill: #fff;"/>
    <path d="M53.4,202.63l1.51-3.74,14.42-1.5-11.88-4.8,1.07-2.65,16.47,6.66-1.2,2.96-16.05,1.74,13.19,5.33-1.07,2.65-16.48-6.66Z" style="fill: #fff;"/>
    <path d="M59.58,187.6l5.46-11.38,2.25,1.08-2,4.16,13.77,6.6-1.48,3.08-13.77-6.6-1.98,4.14-2.25-1.08Z" style="fill: #fff;"/>
    <path d="M76.14,156.44l1.8-2.69,8.87,5.93c.99,.66,1.76,1.09,2.32,1.28s1.11,.17,1.68-.08c.57-.25,1.1-.74,1.59-1.48,.47-.7,.72-1.32,.75-1.86,.03-.54-.1-1.03-.41-1.47-.31-.44-1.07-1.07-2.3-1.89l-8.83-5.9,1.65-2.47,8.71,5.83c1.4,.93,2.39,1.77,2.99,2.5s.87,1.69,.8,2.86c-.07,1.17-.57,2.46-1.52,3.88-.73,1.1-1.52,1.94-2.38,2.54-.85,.6-1.76,.87-2.73,.82-.97-.05-2.35-.67-4.13-1.86l-8.87-5.93Z" style="fill: #fff;"/>
    <path d="M85.34,142.88l2.38-3.09,13.83,2.36-9.82-7.56,1.69-2.19,13.62,10.49-1.89,2.45-15.41-2.55,10.91,8.4-1.69,2.19-13.62-10.49Z" style="fill: #fff;"/>
    <path d="M95.98,129.42l2.32-2.72,13.08,11.16-2.32,2.72-13.08-11.16Z" style="fill: #fff;"/>
    <path d="M118.98,117.14c2.12,2.04,3.26,4.06,3.42,6.05,.17,1.99-.62,3.89-2.37,5.7-1.75,1.81-3.63,2.68-5.64,2.6s-4.07-1.14-6.19-3.19c-2.1-2.03-3.24-4.05-3.4-6.05s.64-3.92,2.39-5.74c1.74-1.8,3.6-2.66,5.61-2.57,2,.08,4.06,1.15,6.17,3.19Zm-2.6,2.7c-1.47-1.42-2.83-2.32-4.09-2.71-1.26-.39-2.4-.04-3.44,1.03-1.03,1.07-1.33,2.23-.89,3.47s1.39,2.57,2.85,3.98c1.44,1.39,2.79,2.29,4.05,2.7,1.26,.41,2.43,.06,3.5-1.04,1-1.04,1.3-2.18,.88-3.41-.41-1.23-1.37-2.57-2.86-4.02Z" style="fill: #fff;"/>
    <path d="M116.79,107.39l3.16-2.78,13.52,4.63-8.18-9.31,2.25-1.97,11.35,12.92-2.51,2.2-15.08-5.08,9.09,10.34-2.25,1.97-11.35-12.92Z" style="fill: #fff;"/>
    <path d="M158.46,86.65c1.7,2.52,2.46,4.77,2.28,6.77s-1.26,3.66-3.25,5c-2,1.35-3.96,1.74-5.89,1.17s-3.74-2.12-5.45-4.64c-1.69-2.5-2.44-4.76-2.26-6.76,.18-2,1.28-3.68,3.29-5.03,1.98-1.34,3.93-1.72,5.85-1.15,1.92,.57,3.73,2.12,5.43,4.64Zm-2.97,2.01c-1.18-1.75-2.34-2.97-3.5-3.65s-2.31-.63-3.49,.16c-1.18,.79-1.66,1.86-1.45,3.18,.21,1.32,.9,2.86,2.08,4.6,1.16,1.71,2.31,2.93,3.46,3.64,1.15,.71,2.33,.66,3.56-.17,1.15-.77,1.62-1.82,1.43-3.13-.19-1.31-.89-2.86-2.09-4.64Z" style="fill: #fff;"/>
    <path d="M155.33,78.22l9.86-5.86,1.2,2.03-6.92,4.12,2.71,4.57,5.54-3.3,1.2,2.03-5.54,3.29,3.96,6.66-2.94,1.75-9.08-15.27Z" style="fill: #fff;"/>
    <path d="M181.33,64.11l5.73-2.5c1.44-.63,2.58-1.01,3.42-1.13s1.66,.04,2.48,.5c.82,.46,1.44,1.19,1.87,2.17,.79,1.81,.37,3.4-1.26,4.79,2.53-.38,4.26,.5,5.18,2.61,.52,1.2,.53,2.44,.03,3.73s-2.02,2.48-4.54,3.58l-5.81,2.53-7.1-16.29Zm6.01,5.42l1.98-.87c1.4-.61,2.22-1.23,2.47-1.87,.25-.64,.23-1.3-.08-2-.36-.82-.87-1.3-1.53-1.43s-1.53,.03-2.59,.5l-2.29,1,2.03,4.67Zm3.21,7.38l2.53-1.1c2.31-1.01,3.09-2.39,2.32-4.15-.3-.68-.81-1.19-1.54-1.52s-1.84-.16-3.35,.5l-2.26,.99,2.3,5.29Z" style="fill: #fff;"/>
    <path d="M198.03,57.07l11.14-4,.8,2.22-7.92,2.84,1.72,4.78,6.21-2.23,.8,2.23-6.21,2.23,1.88,5.23,8.05-2.89,.81,2.27-11.27,4.04-6-16.72Z" style="fill: #fff;"/>
    <path d="M213.61,51.74l3.27-.99,5.14,17.01-3.27,.99-5.14-17.01Z" style="fill: #fff;"/>
    <path d="M232.72,46.62l3.34-.75,2.43,10.78c.4,1.79,.58,3.14,.54,4.07s-.39,1.74-1.05,2.44c-.66,.7-1.72,1.21-3.17,1.54-.75,.17-1.66,.26-2.74,.28l-.53-2.38c.73,0,1.39-.06,2-.2,.72-.16,1.24-.4,1.55-.71s.49-.72,.53-1.22-.12-1.53-.47-3.08l-2.43-10.78Z" style="fill: #fff;"/>
    <path d="M243.11,44.48l3.37-.6,3.12,17.49-3.37,.6-3.12-17.49Z" style="fill: #fff;"/>
    <path d="M253.48,42.69l4-.47,8.25,11.92-1.5-12.72,2.84-.34,2.08,17.65-3.17,.38-9.24-13.24,1.67,14.13-2.84,.34-2.08-17.65Z" style="fill: #fff;"/>
    <path d="M281.37,48.9l6.9-.29,.39,9.23-1.82,.08-.55-2.23c-.98,1.67-2.6,2.56-4.86,2.65-2.3,.1-4.14-.63-5.5-2.19-1.37-1.55-2.1-3.71-2.22-6.47-.12-2.9,.42-5.23,1.64-6.98,1.21-1.75,3.15-2.68,5.81-2.79,3.71-.15,6,1.56,6.87,5.13l-3.06,.79c-.43-1.51-.96-2.48-1.59-2.9-.63-.43-1.37-.62-2.2-.59-2.77,.12-4.06,2.42-3.87,6.92,.19,4.53,1.7,6.73,4.53,6.61,2.35-.1,3.46-1.69,3.33-4.79l-3.69,.15-.1-2.35Z" style="fill: #fff;"/>
    <path d="M303.51,40.17l3.34,.22-.71,11c-.08,1.23-.06,2.14,.05,2.74s.43,1.08,.94,1.46,1.23,.6,2.15,.66c.87,.06,1.55-.04,2.05-.29,.5-.25,.87-.63,1.1-1.13,.23-.5,.4-1.52,.5-3.04l.71-10.95,3.07,.2-.7,10.81c-.11,1.73-.34,3.06-.69,3.97s-1.06,1.65-2.14,2.2c-1.08,.55-2.5,.76-4.25,.65-1.36-.09-2.53-.36-3.5-.81-.98-.45-1.69-1.12-2.15-2.02-.46-.89-.62-2.45-.47-4.66l.71-11Z" style="fill: #fff;"/>
    <path d="M322.53,41.6l3.99,.54,5.01,13.61,1.72-12.69,2.83,.38-2.39,17.61-3.16-.43-5.65-15.12-1.91,14.1-2.83-.38,2.39-17.61Z" style="fill: #fff;"/>
    <path d="M342.1,44.55l3.36,.64-3.32,17.46-3.36-.64,3.32-17.46Z" style="fill: #fff;"/>
    <path d="M350.5,46.14l3.49,.85,.47,14.71,7.19-12.84,2.94,.71-9.51,16.01-3.59-.91-.99-18.53Z" style="fill: #fff;"/>
    <path d="M369.45,50.98l11.3,3.51-.7,2.25-8.04-2.5-1.51,4.85,6.3,1.96-.7,2.26-6.3-1.96-1.65,5.31,8.17,2.54-.72,2.3-11.43-3.56,5.28-16.97Z" style="fill: #fff;"/>
    <path d="M384.1,55.66l5.82,2.2c2.11,.79,3.5,1.79,4.19,2.99,.69,1.2,.75,2.56,.17,4.1-.77,2.05-2.31,3.12-4.6,3.23l.83,8.9-3.47-1.31-.38-8.08-3.01-1.14-2.62,6.94-3.2-1.21,6.27-16.62Zm2.4,3.34l-2.04,5.42,2.45,.92c1.1,.41,2,.46,2.71,.13,.71-.33,1.22-.91,1.54-1.74,.66-1.74-.07-3-2.17-3.8l-2.48-.94Z" style="fill: #fff;"/>
    <path d="M408.38,69.91l-3.02-.39c.07-1-.06-1.82-.39-2.46s-.94-1.15-1.82-1.54c-.82-.36-1.55-.44-2.18-.22s-1.07,.6-1.31,1.14c-.26,.6-.22,1.18,.12,1.76,.35,.58,1.16,1.44,2.45,2.6,1.1,.99,1.91,1.83,2.43,2.51,.52,.69,.86,1.45,1,2.27,.15,.83,.03,1.66-.34,2.5-.6,1.37-1.68,2.28-3.23,2.74-1.55,.46-3.33,.25-5.35-.65-3.49-1.54-4.98-4.02-4.46-7.42l3.1,.56c-.4,2.22,.43,3.78,2.49,4.69,1.01,.45,1.87,.56,2.59,.34,.72-.22,1.23-.66,1.52-1.31,.21-.48,.23-1.01,.06-1.58-.18-.57-.88-1.41-2.1-2.51-1.3-1.16-2.2-2.06-2.72-2.7-.52-.64-.86-1.39-1.04-2.27-.17-.88-.08-1.74,.3-2.59,.57-1.29,1.58-2.15,3.01-2.57,1.44-.42,3.02-.24,4.76,.53,3.07,1.36,4.45,3.54,4.14,6.53Z" style="fill: #fff;"/>
    <path d="M414.51,68.53l3.06,1.53-7.97,15.88-3.06-1.53,7.97-15.88Z" style="fill: #fff;"/>
    <path d="M423.03,72.85l10.97,6.24-1.24,2.17-4.01-2.28-7.55,13.27-2.97-1.69,7.55-13.27-3.99-2.27,1.24-2.17Z" style="fill: #fff;"/>
    <path d="M438.35,81.72l3.09,2.06-.94,8.28,7.32-4.03,2.73,1.81-10.46,5.37-4.16,6.25-2.85-1.89,4.16-6.25,1.1-11.58Z" style="fill: #fff;"/>
    <path d="M468.09,115.08c-1.96,2.33-3.92,3.67-5.88,4.05-1.97,.38-3.87-.21-5.71-1.75-1.85-1.55-2.76-3.33-2.74-5.34,.02-2.01,1-4.18,2.97-6.51,1.94-2.31,3.9-3.65,5.88-4.03,1.98-.37,3.89,.22,5.74,1.78,1.83,1.54,2.73,3.31,2.71,5.32s-1.01,4.17-2.97,6.49Zm-2.75-2.3c1.36-1.62,2.21-3.07,2.55-4.37,.34-1.29-.03-2.4-1.12-3.32s-2.24-1.09-3.46-.52c-1.22,.57-2.5,1.65-3.85,3.26-1.33,1.58-2.18,3.02-2.55,4.33-.37,1.3,0,2.43,1.14,3.38,1.06,.89,2.19,1.06,3.4,.52,1.21-.54,2.5-1.64,3.89-3.28Z" style="fill: #fff;"/>
    <path d="M476.54,110.85l8.31,7.91-1.62,1.71-5.83-5.55-3.66,3.85,4.67,4.45-1.62,1.71-4.67-4.45-5.34,5.61-2.48-2.36,12.25-12.87Z" style="fill: #fff;"/>
    <path d="M496.74,131.59l8.02,9.75-1.93,1.59-2.93-3.57-11.8,9.7-2.17-2.64,11.8-9.69-2.91-3.54,1.93-1.59Z" style="fill: #fff;"/>
    <path d="M507.29,144.69l6.92,9.6-1.91,1.38-4.92-6.83-4.12,2.97,3.86,5.35-1.92,1.38-3.86-5.36-4.51,3.25,5,6.94-1.95,1.41-7-9.71,14.42-10.38Z" style="fill: #fff;"/>
    <path d="M512.39,173.56l1.32,2.88c-3.7,1.51-6.56,.62-8.58-2.67-1.31-2.14-1.58-4.17-.81-6.08s2.34-3.6,4.71-5.05c2.55-1.57,4.85-2.21,6.89-1.94,2.04,.27,3.7,1.45,4.98,3.54,1.98,3.23,1.42,6.18-1.69,8.86l-2.01-2.5c2.11-1.7,2.66-3.39,1.62-5.07-1.38-2.25-4.06-2.15-8.05,.29-3.71,2.28-4.88,4.54-3.5,6.79,.55,.9,1.25,1.4,2.08,1.49,.84,.1,1.85-.09,3.03-.55Z" style="fill: #fff;"/>
    <path d="M525.66,172.93l1.58,3.04-6.54,3.39,2.8,5.4,6.54-3.4,1.58,3.04-15.77,8.19-1.58-3.04,7.02-3.65-2.8-5.4-7.02,3.65-1.58-3.04,15.77-8.19Z" style="fill: #fff;"/>
    <path d="M533.45,188.24l1.59,3.7-9.09,11.29,11.77-5.05,1.13,2.63-16.33,7.01-1.26-2.93,10.07-12.62-13.08,5.61-1.13-2.63,16.33-7.01Z" style="fill: #fff;"/>
    <path d="M536.57,221.07c-2.87,.99-5.25,1.13-7.13,.44-1.88-.69-3.21-2.17-3.99-4.44-.78-2.28-.65-4.28,.4-6s3.02-3.07,5.9-4.05c2.86-.98,5.23-1.12,7.11-.42s3.22,2.19,4.01,4.48c.78,2.26,.64,4.25-.42,5.95s-3.02,3.05-5.89,4.04Zm-1.17-3.39c2-.68,3.48-1.49,4.44-2.43,.96-.93,1.21-2.07,.75-3.42-.46-1.35-1.36-2.09-2.69-2.23-1.33-.14-2.99,.13-4.98,.81-1.96,.67-3.43,1.47-4.41,2.39-.99,.92-1.24,2.08-.76,3.48,.45,1.31,1.33,2.04,2.65,2.2,1.32,.16,2.99-.11,5.02-.81Z" style="fill: #fff;"/>
    <path d="M547.04,225.58l.84,3.32-14.81,3.77,1.8,7.09-2.41,.61-2.65-10.4,17.22-4.38Z" style="fill: #fff;"/>
    <path d="M544.64,257.55c-2.99,.51-5.36,.28-7.11-.7s-2.82-2.66-3.22-5.02c-.41-2.38,.04-4.33,1.35-5.85,1.31-1.53,3.47-2.54,6.47-3.06,2.98-.51,5.34-.27,7.09,.72s2.83,2.68,3.24,5.07c.4,2.36-.05,4.29-1.36,5.81s-3.47,2.53-6.46,3.04Zm-.61-3.53c2.08-.36,3.67-.92,4.77-1.68,1.1-.77,1.53-1.85,1.29-3.25s-1.01-2.28-2.3-2.63c-1.29-.35-2.98-.35-5.05,0-2.04,.35-3.62,.9-4.74,1.66s-1.56,1.86-1.31,3.31c.23,1.36,.99,2.23,2.26,2.59,1.27,.37,2.97,.37,5.08,0Z" style="fill: #fff;"/>
    <path d="M546.25,271.16l.57,6.88-9.21,.77-.15-1.82,2.21-.64c-1.71-.91-2.66-2.49-2.85-4.75-.19-2.3,.46-4.16,1.96-5.59,1.5-1.43,3.62-2.26,6.37-2.49,2.9-.24,5.24,.21,7.04,1.35,1.8,1.14,2.81,3.04,3.03,5.69,.31,3.7-1.31,6.06-4.84,7.08l-.92-3.02c1.49-.49,2.44-1.06,2.84-1.71,.4-.65,.56-1.39,.49-2.22-.23-2.76-2.59-3.95-7.08-3.58-4.51,.38-6.65,1.98-6.42,4.8,.2,2.34,1.84,3.39,4.92,3.13l-.31-3.68,2.35-.2Z" style="fill: #fff;"/>
    <path d="M555.66,282.02l.03,3.72-7.38,3.87,7.44,3.79,.03,3.28-10.31-5.65-7.51,.07-.03-3.42,7.51-.07,10.21-5.58Z" style="fill: #fff;"/>
  </g>
  <path d="M421.1,332.8h2c.7-3.23,1.83-4.93,3-8h1l-1-5h4c.58,1.53,.76,1.64,1,4-1.86,1.54-7.32,10.32-8,13,1.13,.84,.15-.13,1,1,2.73-1.58,2.45-2.74,7-3,1.14,1.14,0,.4,2,1v3l-7,6-1,2h-4v1l-4,1v-1h1c2.45-2.93,4.98-3.31,6-8h-3v1c-.8,.42-2.25,1.81-4,1v-1c3-.78,2.63-.62,3-4-6.3,.15-8.19,2.76-12,5v-2c1.49-.86,2.22-1.42,3-3h-1c-.57-2.44-1.05-2.21-2-4,4.61-.06,5.6-.7,6-5l-5,1v-1h1l-2-3c3.14-.74,5.97-3.35,6-7l-1-2h1v-1l3,1c.47,1.38,1.49,2.49,1,5,0,0-1.69,1.08-1,3l2,1v4h1c.84,1.43,.71,1.71,1,4Zm-99-16h3v3l9-2c.94,1.8,1.38,1.57,2,4h-1c-1.95,3.34-6.69,6.11-11,7l-1,4h1v1l4-1v1c-1.31,.81-1.18,.7-2,2h2v-1l3,1v3h-1c-1.26,1.57-2.66,2.43-5,3l-1,3h1v1c-.19,.4-1.64,.45-2,2h1c1.64,3.1,1.9,1.8,2,7-2.93,2.45-3.11,6.42-3,12l3-1c.08-2.63,.39-3.4,1-5l3,1v4l-4,1v1h-2c-1.19,.99-.94,2.81-1,5-2.71-.5-3.76-1.07-5-3h2v-3c-2.01-.57-.87,.12-2-1h1l-1-5,2-1v-2l-3-1v-1h1c1.14-1.14,0-.4,2-1l-1-3h-2v-1h2c1.19-2.21,2.33-2.99,3-6h-3v-1h1c1.88-2.27,4.43-3.3,6-6-1.13-.84-.15,.13-1-1-2.01,.57-.87-.12-2,1-3.76,.68-6.12,2.39-7,6,.22,.11,3.63,1.44,3,2h-1c-1.36,2.51-2.33,3.61-6,4,1.08-2.95,1.02-2.06,0-5l-3,2v1h-2l-1,2h-2l-4,5h-2v1h-5s.07,.61-2,1c.78-2.78,1.14-2.53,3-4v-1h3l2-3,3-1v-1h2l1-2,6-2,1-2h2c1.92-1.09,4-2.92,6-4v-1h-5v-1h-8v-1c-1.14-1.14-.4,0-1-2,3.12-.23,4.73-1.05,7-2,.87-2.32,1.02-4.41,1-8,2.93,.68,3.27,1.11,4,4h3l1-4h1v-1h-1v-4Zm-146,1c4.94,1.29,4,4.35,7,7-.95,4.98-3.63,8.54-5,13v7c-1.83,6.38,.03,12.42,0,20h-1c-.56-1.03-1.84-3.79-4-3v1c-1.68,1.48-2.91,3.99-4,6v2h-1l-5,6h-3c-.58-1.53-.76-1.64-1-4,5.09-2.84,9.21-7.76,13-12l2-1v-26c3.08-3.45,.88-12.54,2-16Zm47,3c3.13,.02,5.99-.12,8,1l1,2c3.46,1.36,4.47-1.86,5-2l4,1-1,3-6,1-1,2-4,1-1,2h-2l-2,3h-3v1l-4,1v-1c-1.13-.84-.15,.13-1-1l10-6v-4l-3-1v-3Zm102,5c3.22-.74,3.64-1.36,4-5-2.39,.46-3.14,1.16-5,2l1,3Zm35,24c-4.62,.49-6.41,2.57-9,5l-1,2h-2l-1,2-5,1v1l-3-1v-4c3.83-.34,4.58-1.87,7-3h3l2-3,4-1,1-2,4-1c.88-4.62,1.43-7.37,0-12v-5h-1c-1.64-2.47-1.67-1.9-2-6,1.13-.84,.15,.13,1-1h2c1.98,2.97,4.9,2.89,6,7h1v5h-1c-.65,2.62,.52,4.6,1,6h2c1.53-2.79,4.55-6.12,8-7v1h1v2l-12,8v4h-1l-1,8h-1v2l-3,2v2h-1v1h-2c-1.64,2.08-9.74,5.07-13,2,6.21-.2,7.91-1.81,11-5l2-1v-2h1c.95-1.23,.75-1.93,2-3v-4Zm-163-25h4l1,10h-1v4h1c.79,1.46,.71,1.69,1,4-2.69,.59-4.73,1.99-6,4h-1v4h-1l-1,4-2,1c-.63,1.27,.55,.55,1,1v1h3v-1l3,1c-.57,2.01,.12,.87-1,2-2.58,2.9-3.26,.63-7,2v1l-5,1c-.87-2.32-1.02-4.41-1-8,3.24-2.91,2.72-4.96,2-9l4-3v-2c2.65-4.7,4.82-10.81,6-17Zm141,1c2.63,.08,3.4,.39,5,1l-1,2h-1v1h-5l-1,2h-5v-1h1c1.89-2.13,5.17-2.79,7-5Zm-68,22c6.8-.66,8.24-4.67,16-5,.84,1.13-.13,.15,1,1v3c-1.88,.41-14.92,5.09-15,6v-2c-2.78,.59-4.8,1.55-7,3l-1,2-4,1-1,2h-2v1h-2l-1,2h-2l-1,2h-6l-2-3,24-11,3-18h-1c-1.42,2.51-2.05,2.87-6,3-1.68-2.84-3.45-2.72-4-7l16-1c.89,1.55,1.47,2.1,3,3-.57,2.01,.12,.87-1,2-1.49,6.14-6.14,8.32-7,16Zm48-18h3v-3c-2.76,.72-2.24,.28-3,3Zm83,0c3.67,1.55,5.82,2.75,6,8-1.53,.58-1.64,.76-4,1l1-2h-1v-2h-1c-.93-1.52-.81-2.44-1-5Zm15,5h3v-4l-3,1v3Zm-196,15l-1,3h-3l-3-8h4l2,4c1.13-.84,.15,.13,1-1,2.9-1.58,6.53-4.88,7-9h-3v-1h2c1.51-2.47,.83-.68,3-2v-1h2l2-3h1v1h1v3c-4.73,3.04-.84,2.58-3,7l-2,1v2c-1.02,1.3-3.55,1.12-5,2l-1,2h-4Zm98-18v2h2v-2h-2Zm10,0h2v1c-2.01-.57-.87,.12-2-1Zm75,15c-2.39-.61-1.86-.32-3-2h-1v-4h-1l-1-3h2c1.21,2.13,2.25,2.18,3,5h1v4Zm-181-8h2v1c-2.01-.57-.87,.12-2-1Zm-2,1h2v1c-2.01-.57-.87,.12-2-1Zm195,2h2c-.84,1.13,.13,.15-1,1-1.17,1.36-1.82,1.53-4,2v-1h1c.77-1.02,1.23-.98,2-2Zm-12,5c4.65-.04,5.54-1.22,9-2v1c-1.13,.84-.15-.13-1,1-3.28,1.54-3.86,2.86-9,3v-1c1.14-1.14,.4,0,1-2Zm12,2h2v1c-2.01-.57-.87,.12-2-1Zm-244,9h-2v1l-5,4v2c-1.04,.96-.98-.93-1-1-1.36-1.78,2.38-4.21,1-9l-2-1c.66-2.48,2.94-2,6-2,1.14,1.14,0,.4,2,1,.61,1.6,.88,2.37,1,5Zm59-6h3v1h1v2h1c1.39,1.69,1.66,2.02,2,5-1.31,.81-1.18,.7-2,2-1.13-.84-.15,.13-1-1-1.94-1.15-2.38-2.68-4-4v-5Zm154,11h-6c-1.41-3.33-3.37-6.17-5-9,1.13-.84,.15,.13,1-1l4,1v1c5.46,2.46,6.25-.95,6,8Zm8-10h3v8c-1.53,.58-1.64,.76-4,1-.58-1.53-.76-1.64-1-4,1.59-1.35,1.74-2.17,2-5Zm25,1l-1,6h4c.95-.43,1.36-3.84,4-3v1h2v2c-4.1,.86-4.96,2.68-10,3l1,9c-3.98,2.19-3.31,2.97-10,3-1.24-1.44-2.77-1.56-4-3,3.8,.08,7.58-.08,10-1,.11-2.36,.3-2.54,1-4h-1v-1c-3.48,.72-4.35,1.86-9,2l-1-2c4.78-.31,9-2.88,10-7,1.28-2.28-1.53-3.53-3-6h5c1.14,1.14,0,.4,2,1Zm-192,0v11h-2v1l-2-1-9,1c-.68,1.37-1.5,1.28-2,2-2.54,3.66-.41,4-7,4l-1-4h3v-2c2.72-.57,4.9-1.55,7-3l2-3h2v-1h2v-1h3v-1c2.08-1.82,.66-1.97,4-3Zm-8,9h3v-1h1v-3c-2.93,.68-3.27,1.11-4,4Zm99,5v2c-2.76,.72-2.24,.28-3,3-3.69-.33-4.21-.82-5-4l8-1Zm-181,94,3,1,3,1,3,1,7,2-34-11,6,2,2,1" style="fill: #fff; fill-rule: evenodd;"/>
  <g>
    <path d="M247.34,424.3h-12.69c-1.41,0-3.06,.12-4.94,.37v-4.22c2,.25,3.64,.31,4.94,.18h12.69v-1.65c2.58-1.96,4.7-3.67,6.35-5.14h-11.98c-1.29,.12-2.76,.25-4.41,.37v-3.86c1.64,.25,3.11,.37,4.41,.37h13.22c2.11,0,4.23-.18,6.34-.55l.35,2.75c-2.59,1.1-6.17,3.43-10.75,6.98v.73h13.39c1.29,.12,2.94,.06,4.94-.18v4.22c-2-.24-3.64-.37-4.94-.37h-13.39v7.16c0,1.96-.53,3.36-1.59,4.22-1.18,.73-3.06,1.1-5.64,1.1,.12-1.35-.18-2.88-.88-4.59h3.17c.82-.12,1.29-.61,1.41-1.47v-6.43Zm16.74-29.38c-1.53,3.06-2.88,5.69-4.05,7.89h4.05c1.41,.12,3,0,4.76-.37-.24,1.47-.29,2.94-.18,4.41v2.02c-.12,1.35-.06,2.51,.18,3.49h-4.05c.12-1.59,.23-3.12,.35-4.59v-1.65h-31.2v4.22c-.12,.98-.06,1.65,.18,2.02h-3.88c.12-1.59,.18-3.12,.18-4.59v-.92c0-1.47-.06-2.94-.18-4.41,1.76,.37,3.35,.49,4.76,.37h21.33c.47-1.1,1.17-2.75,2.11-4.96,.82-2.32,1.53-4.47,2.11-6.43,1.64,.73,3.35,1.35,5.11,1.84,.12,.25,.06,.49-.18,.73-.47,.12-.94,.43-1.41,.92Zm-21.68,3.67c-1.29,.73-2.53,1.59-3.7,2.57-.94-2.08-2.47-4.41-4.58-6.98,1.41-.73,2.7-1.47,3.88-2.2,1.64,2.2,3.11,4.41,4.41,6.61Zm6.7,1.47c-.71-2.45-1.7-4.89-3-7.34,1.29-.37,2.58-.86,3.88-1.47,1.06,2.2,2.11,4.53,3.17,6.98-1.18,.37-2.53,.98-4.05,1.84Z" style="fill: #fff;"/>
    <path d="M286.17,400.07c-.35,.98-.94,2.45-1.76,4.41h9.69v-10.28c-.24-1.47-.29-2.51-.18-3.12,1.76,.25,3.17,.43,4.23,.55,.71,.12,.88,.37,.53,.73-.24,.25-.41,.49-.53,.73-.35,.25-.53,.43-.53,.55v10.83h9.17c.59,.12,1.59,.06,3-.18,1.17,.12,2.17,.06,3-.18v4.22c-.94,0-2-.06-3.17-.18h-11.99v8.81h7.93c.47,.12,1.35,.06,2.64-.18,1.17,.12,2.12,.06,2.82-.18v4.04c-.94,0-2.06-.06-3.35-.18h-10.05v10.28h14.8c1.41-.12,2.41-.18,3-.18v4.22c-.94-.12-2.06-.25-3.35-.37h-34.37c-1.18,0-2.18,.12-3,.37v-4.22c.82-.12,1.88-.06,3.17,.18h16.21v-10.28h-10.4c-1.29,.12-2.23,.18-2.82,.18v-4.04c.71,.25,1.76,.31,3.17,.18,1.29,.12,2.23,.18,2.82,.18h7.23v-8.81h-11.1c-1.41,2.57-3.11,5.14-5.11,7.71-.24-.24-.71-.67-1.41-1.29-.71-.73-1.41-1.29-2.11-1.65,2.11-1.84,3.88-4.41,5.29-7.71,1.53-3.06,2.64-6.18,3.35-9.36,1.41,.73,2.88,1.35,4.41,1.84,.47,.61,.47,.98,0,1.1-.47,.37-.88,.8-1.23,1.29Z" style="fill: #fff;"/>
    <path d="M340.33,396.95c-4.35,6.98-10.28,12.3-17.8,15.97-.94-1.84-1.82-3.24-2.64-4.22,4.58-1.22,8.46-3.49,11.63-6.79,3.17-3.06,5.58-6.73,7.23-11.02,1.76,.61,3.35,1.04,4.76,1.29,.47,.37,.53,.73,.18,1.1-.59,.25-1,.55-1.23,.92,2.35,3.79,5.11,6.86,8.28,9.18,3.17,2.45,6.7,3.92,10.58,4.41-.94,1.47-1.65,3-2.11,4.59-7.87-2.94-14.16-8.08-18.86-15.42Zm17.45,36.9c-1.29,.98-2.41,1.96-3.35,2.94-.59-.98-1.47-2.27-2.64-3.86-4.58,.37-9.34,.73-14.28,1.1-4.93,.24-8.99,.73-12.16,1.47-.12-1.47-.41-3.18-.88-5.14,2.94-.61,5.35-1.77,7.23-3.49,1.76-1.59,3.35-3.49,4.76-5.69h-11.1c-.94,.12-1.76,.18-2.47,.18v-4.04c.7,.25,1.53,.31,2.47,.18,1.06,.12,1.88,.18,2.47,.18h24.5c.47,.12,1.35,.06,2.64-.18,1.17,.12,2.12,.06,2.82-.18v4.04c-.59,0-1.47-.06-2.64-.18h-15.33c.94,.61,1.59,1.1,1.94,1.47,.12,.25,.06,.49-.18,.73-.71,.25-1.23,.43-1.59,.55-.59,.37-1.47,1.16-2.64,2.39-1.18,1.35-2.88,2.88-5.11,4.59l17.62-.73c-1.41-1.84-2.47-3.12-3.17-3.86,.82-.49,1.88-1.35,3.17-2.57,1.41,1.47,2.82,3.12,4.23,4.96,1.41,1.96,2.64,3.67,3.7,5.14Zm-26.26-25.34c1.41,.25,2.76,.31,4.05,.18h11.28c.94,0,1.7-.06,2.29-.18v3.86c-.59,0-1.35-.06-2.29-.18h-11.28c-1.29,0-2.64,.06-4.05,.18v-3.86Z" style="fill: #fff;"/>
  </g>
  <g>
    <path d="M101.91,446.97l-2.04,3.32s55.91,20.94,71.11,21.96c0,0-.77,4.47,5.74,7.66s36.51,9.96,36.51,9.96c0,0-15.19-10.72-16.98-11.36,0,0,27.19,3.45,28.72,3.19l.89,3.83s17.11,10.72,42.38,12.13l-18.38-11.23-2.81-1.15,26.3,1.02,2.68,4.85s22.34,9.83,40.47,11.11l-13.28-9.06-13.66-6.13,28.98-.51s.64,10.98,44.04,11.62l-7.66-5.11-16.34-5.74-5.49-1.91,24-2.04,1.28,3.32s11.11,8.55,43.4,6.38c0,0-24.51-11.87-31.15-11.87,0,0,23.23-3.7,29.62-5.62l1.53,3.96s9.32,4.34,45.83,3.83c0,0-25.79-10.98-35.49-10.09l23.49-6.13,9.06,4.47,38.17,1.66s-18.26-9.06-34.47-10.21l12.89-5.87,17.62-1.02,19.66-12.13-25.28,1.79-2.3,7.02-11.62,2.89-19.23,5.79-25.53,7.15-24.34,6.64-30.3,3.91-33.36,2.55-42.38,1.19s-48.85-1.36-49.7-3.23l-53.45-7.66-.75-.21-13.6-3.83-35.17-9.91-29.62-11.15Z" style="fill: #fff; fill-rule: evenodd;"/>
    <path d="M166.32,448.88s20.69,15.34,13.44,22.82c-7.82,8.07-7.18-.67-7.18-.67l-6.26-3.11s-5.94-6.78-2.17-15.4l2.17-3.64Z" style="fill: #fff; fill-rule: evenodd;"/>
    <path d="M221.08,456.48s-9.88,14.47,2.75,21.73,10.65,2.66,10.65,2.66c0,0,9.26-8.87-13.4-24.38Z" style="fill: #fff; fill-rule: evenodd;"/>
    <path d="M270.86,482.52s-10.4-4.34-3.57-21.06c0,0,11.36,9.13,14.87,13.34s1.4,8.87,1.4,8.87l-12.71-1.15Z" style="fill: #fff; fill-rule: evenodd;"/>
    <path d="M313.19,482.15s-9.96-3.02-5.36-19.48c0,0,14.87,7.09,18.51,14.11s-3.51,7.98-3.51,7.98l-9.64-2.6Z" style="fill: #fff; fill-rule: evenodd;"/>
    <path d="M355.06,479.97s-16.79-1.53-9.13-21.13c0,0,15.57,7.4,17.81,13.98s-1.09,9.64-1.09,9.64l-7.6-2.49Z" style="fill: #fff; fill-rule: evenodd;"/>
    <path d="M395.76,473.8s-14.4,.23-8.79-21.92c0,0,17.49,10.72,18.83,14.43s-.26,6.32-.26,6.32l-9.79,1.18Z" style="fill: #fff; fill-rule: evenodd;"/>
    <path d="M433.19,463.46s-18.77,2.53-12.77-22.75c0,0,18.52,11,19.79,15.7,1.27,4.7-1.91,9.06-1.91,9.06l-5.11-2.02Z" style="fill: #fff; fill-rule: evenodd;"/>
    <path d="M459.36,455.73s-1.44-8.83,13.91-9.91c15.35-1.09,3.19,6.06,3.19,6.06l-17.11,3.85Z" style="fill: #fff; fill-rule: evenodd;"/>
  </g>
  <g>
    <path d="M254.06,543.8h-2.42v-14.26h-4.53v-2.15c1.07,.08,2.15-.19,3.22-.79,1.07-.6,1.71-1.62,1.91-3.06h1.81v20.26Z" style="fill: #fff;"/>
    <path d="M288.56,533.61c0,2.64-.55,5-1.66,7.08-1.11,2.08-2.73,3.19-4.88,3.34-1.07,0-2.15-.41-3.22-1.25-1.07-.83-1.75-2.26-2.01-4.3h2.11c.13,.68,.44,1.36,.91,2.04,.47,.68,1.21,1.02,2.21,1.02,.54,.15,1.32-.23,2.36-1.13,1.04-.91,1.69-3.02,1.96-6.34-.94,1.51-2.38,2.3-4.33,2.38-1.07,.08-2.26-.38-3.57-1.36-1.31-.98-2-2.79-2.06-5.43,0-1.89,.57-3.38,1.71-4.47,1.14-1.09,2.45-1.68,3.92-1.75,4.16-.07,6.34,3.32,6.54,10.19Zm-3.62-6.68c-.67-.91-1.51-1.4-2.52-1.47-.94,0-1.8,.36-2.57,1.08-.77,.72-1.16,1.91-1.16,3.57-.07,.91,.17,1.81,.7,2.72,.54,.9,1.48,1.4,2.82,1.47,1.07,0,1.96-.36,2.67-1.08,.7-.72,1.09-1.83,1.16-3.34-.07-1.06-.44-2.04-1.11-2.94Z" style="fill: #fff;"/>
    <path d="M306.26,534.29c-.07-2.87,.45-5.38,1.56-7.53,1.11-2.15,2.8-3.3,5.08-3.45,1.01,0,2.04,.42,3.12,1.25,1.07,.83,1.78,2.23,2.11,4.19h-2.11c-.2-.6-.54-1.25-1.01-1.92-.47-.68-1.18-1.06-2.11-1.13-.67-.07-1.53,.36-2.57,1.3-1.04,.94-1.63,3.04-1.76,6.28,.87-1.51,2.31-2.34,4.33-2.49,1.01,0,2.16,.51,3.47,1.53,1.31,1.02,2.03,2.81,2.16,5.38-.07,1.96-.67,3.49-1.81,4.58-1.14,1.1-2.42,1.68-3.82,1.76-4.43-.15-6.64-3.4-6.64-9.74Zm3.57,6.23c.64,.91,1.52,1.36,2.67,1.36,.87,.08,1.69-.24,2.46-.96,.77-.72,1.19-1.94,1.26-3.68,0-.83-.27-1.72-.8-2.66-.54-.94-1.44-1.45-2.72-1.53-2.42,0-3.69,1.47-3.82,4.42,0,1.13,.32,2.15,.96,3.06Z" style="fill: #fff;"/>
    <path d="M346.8,540.34c-1.01,2.23-2.62,3.42-4.83,3.57-1.28,0-2.57-.79-3.88-2.38-1.31-1.58-2-4.11-2.06-7.58-.07-2.56,.42-4.94,1.46-7.13,1.04-2.19,2.6-3.36,4.68-3.51,1.81,.08,3.27,1.04,4.38,2.89,1.11,1.85,1.69,4.32,1.76,7.41,0,2.26-.5,4.51-1.51,6.74Zm-1.66-11.94c-.57-1.73-1.53-2.68-2.87-2.83-2.35,0-3.59,2.64-3.72,7.92-.07,2.57,.22,4.58,.86,6.06,.64,1.47,1.59,2.21,2.87,2.21,1.01,0,1.86-.66,2.57-1.98,.71-1.32,1.09-3.26,1.16-5.83,0-1.96-.29-3.81-.86-5.55Z" style="fill: #fff;"/>
  </g>
</svg>