<?xml version="1.0" encoding="UTF-8"?>
<svg id="a" data-name="图层 2" xmlns="http://www.w3.org/2000/svg" viewBox="0 0 193.77 193.77">
  <path d="M96.89,193.77C43.46,193.77,0,150.31,0,96.89S43.46,0,96.89,0s96.88,43.46,96.88,96.89-43.46,96.88-96.88,96.88m0-190.32C45.36,3.45,3.45,45.36,3.45,96.89s41.91,93.44,93.44,93.44,93.43-41.92,93.43-93.44S148.41,3.45,96.89,3.45" style="fill: #1ba8ce;"/>
  <path d="M45.52,144.66l.83,.92-2.08,1.89,2.73,3.01-.89,.81-2.73-3.01-3.77,3.42c-.38,.35-.4,.71-.06,1.09l2.22,2.44-.92,.83-2.25-2.48c-.29-.32-.47-.6-.55-.85-.2-.67,0-1.29,.64-1.86l6.84-6.21Zm-7.57-2.36l.89-.81,2.75,3.03,2.08-1.89,.82,.9-6.89,6.25c-.9,.82-1.8,.73-2.69-.25l-2.21-2.43,.92-.83,2.14,2.36c.2,.22,.39,.34,.56,.35,.21,.02,.42-.07,.62-.25l3.75-3.4-2.75-3.03Z" style="fill: #1ba8ce;"/>
  <path d="M52.65,161.14l.98,.75c-.09,.17-.25,.44-.47,.83-.21,.36-.31,.66-.3,.91,.02,.24,.11,.43,.29,.59,.01,0,.03,.02,.07,.05l-.74,.97c-.3-.28-.5-.51-.58-.68-.25-.48-.31-.97-.19-1.46,.06-.25,.22-.61,.48-1.08,.21-.39,.37-.68,.46-.86Zm-4.66-6.43l6.17,4.7c.25,.19,.4,.29,.45,.3,.11,.03,.24-.05,.38-.23l.42-.55c.15-.2,.11-.38-.11-.54l-6.68-5.09c-.09-.07-.16-.1-.21-.1-.08,0-.16,.06-.25,.17l-.51,.67c-.1,.13-.12,.23-.08,.3,.04,.06,.17,.18,.42,.37Zm2.98,3.83l-1.64,2.15c-.29,.38-.65,.61-1.08,.69-.44,.08-.9-.06-1.38-.43l-.66-.5,.74-.97,.47,.36c.22,.16,.39,.25,.53,.24,.21,0,.4-.11,.57-.33l1.49-1.95-2.91-2.22-.44-.33c-.26-.2-.41-.44-.45-.72-.05-.35,.04-.67,.28-.98l.98-1.28c.18-.24,.43-.38,.75-.43,.3-.05,.56,.01,.77,.18l.23,.18,7.04,5.36c.73,.55,.87,1.12,.43,1.69l-1.03,1.35c-.18,.24-.39,.4-.63,.47-.34,.1-.66,.04-.96-.19l-3.09-2.36Zm-2.62-7.86l.7-.92,4.31,3.28,.58-.76,.96,.73-.58,.76,4.34,3.31-.7,.92-9.61-7.32Zm-5.53,7.19l.74-.97s.06,.05,.08,.07c.15,.12,.35,.15,.6,.11,.19-.04,.46-.22,.82-.54,.13-.11,.35-.33,.68-.66l.97,.74c-.24,.23-.41,.4-.53,.51-.51,.5-.89,.81-1.14,.94-.72,.36-1.46,.29-2.22-.21Z" style="fill: #1ba8ce;"/>
  <polygon points="54.85 166.2 55.4 165.11 60.29 167.59 63.86 160.53 59.19 158.16 59.75 157.06 70.19 162.35 69.63 163.45 64.95 161.08 61.38 168.14 66.26 170.61 65.71 171.7 54.85 166.2" style="fill: #1ba8ce;"/>
  <path d="M77.34,173.29l.35-1.17c.45,0,.83-.14,1.13-.43,.28-.27,.56-.74,.83-1.43l1.89-4.83,1.2,.36-1.89,4.8c-.26,.66-.48,1.12-.65,1.4-.42,.64-.9,1.05-1.43,1.21-.31,.09-.79,.12-1.44,.1Zm-6.21-10.94l1.21,.36-1,4.9c-.15,.73-.19,1.3-.12,1.71,.05,.32,.16,.57,.31,.75,.08,.09,.22,.19,.41,.3l-.36,1.23c-.66-.36-1.12-.77-1.38-1.23-.23-.41-.32-.91-.3-1.5,.02-.36,.06-.74,.14-1.14l1.08-5.39Zm-3.16,10.69l.35-1.19,3.56,1.05,2.81-9.5,1.19,.35-2.81,9.5,2.1,.62,2.81-9.5,1.19,.35-2.81,9.5,3.58,1.06-.35,1.19-11.62-3.44Z" style="fill: #1ba8ce;"/>
  <path d="M82.08,177.09l.14-1.29c1.67-.3,3.13-1.22,4.38-2.76,.7-.87,1.26-1.94,1.66-3.23l-5.3-.57,.14-1.27,5.4,.58,.22-2.01,1.27,.14-.22,2.01,5.38,.58-.14,1.27-5.27-.57c0,.63,.14,1.36,.41,2.19,.48,1.49,1.19,2.69,2.13,3.6,.63,.61,1.32,1.06,2.08,1.36l-.14,1.29c-.91-.17-1.83-.7-2.74-1.58-.71-.68-1.33-1.53-1.88-2.55-.26-.49-.55-1.17-.87-2.04-.34,.57-.61,.99-.79,1.24-.87,1.19-1.95,2.15-3.25,2.87-.72,.4-1.6,.65-2.62,.74Z" style="fill: #1ba8ce;"/>
  <path d="M96.29,170.59l-.06-.71c-.07-.83,.33-1.43,1.19-1.8l-.07-1,1.21-.09,.07,.97,2.94-.22-.07-.96,1.22-.1,.07,.97,2.98-.22-.07-.97,1.21-.09,.07,1.02c.58,.15,.98,.44,1.2,.84,.13,.23,.2,.53,.22,.9l.03,.56-1.21,.09-.04-.53c-.03-.47-.36-.69-.96-.64l-8.01,.59c-.53,.04-.78,.29-.75,.77l.03,.53-1.23,.09Zm.32,4.59l-.09-1.21,6.61-.48,1.85-1.4c.18-.14,.26-.27,.25-.4,0-.05-.03-.09-.08-.12-.06-.04-.23-.05-.49-.03l-7.41,.55-.08-1.23,7.95-.58c.56-.04,.99,.03,1.3,.23,.33,.2,.5,.48,.53,.84,.03,.45-.19,.86-.68,1.23l-.97,.75,3.39-.25,.09,1.21-4,.3,.09,1.17c.04,.55-.08,1.02-.37,1.4-.33,.44-.8,.69-1.4,.73l-2.43,.18-.1-1.23,2.13-.15c.3-.02,.51-.11,.63-.25,.13-.16,.19-.35,.18-.57l-.09-1.18-6.79,.5Z" style="fill: #1ba8ce;"/>
  <path d="M113.27,169.2l-.31-1.2,8.03-2.09,.31,1.2-8.03,2.09Zm3.08,5.3l4.63-1.21c.33-.09,.52-.17,.57-.25,.05-.07,.06-.19,.02-.34l-.22-.84c-.06-.24-.13-.38-.21-.42-.1-.05-.26-.05-.5,.01l-4.63,1.21c-.29,.08-.46,.15-.5,.22-.04,.07-.04,.21,0,.39l.18,.69c.08,.32,.16,.51,.24,.55,.07,.04,.21,.03,.4-.02Zm-1.74,.15l-.32-1.23c-.14-.54-.13-.95,.04-1.23,.18-.29,.49-.49,.92-.61l5.28-1.38c.6-.16,1.04-.15,1.33,.02,.29,.17,.52,.55,.66,1.13,.1,.42,.18,.7,.22,.85,.17,.62,.22,1.05,.15,1.29-.14,.42-.48,.7-1.05,.85l-5.15,1.34c-.57,.15-.98,.19-1.21,.11-.21-.06-.38-.17-.5-.32-.15-.18-.27-.45-.37-.84Zm-2.04-7.42l-.31-1.18,3.67-.96-.17-.66,1.18-.31,.17,.66,3.53-.92,.31,1.18-8.39,2.19Zm1.05,4.02l-.31-1.2,8.39-2.19,.31,1.2-8.39,2.19Zm-3.58-.06l-.39-1.5c.35-.45,.58-.82,.69-1.13,.22-.62,.32-1.57,.3-2.84l1.32-.35c.06,.8,.03,1.71-.1,2.73l2.16,8.29-1.22,.32-1.72-6.61c-.2,.28-.35,.48-.46,.6-.11,.12-.3,.29-.57,.5Z" style="fill: #1ba8ce;"/>
  <path d="M133.46,165.53l1.11-.52,.66,1.12c.24,.41,.46,.64,.68,.7,.1,.03,.23,.03,.37-.02l.51,1.09c-.49,.24-.97,.26-1.44,.07-.31-.13-.58-.32-.79-.59-.09-.11-.21-.31-.38-.61l-.71-1.23Zm-2.4,2.92l-.69-1.47,1.05-.49,.69,1.47-1.05,.49Zm-3.53-.14l1.1-.52,.68,1.45c.1,.21,.23,.34,.4,.41,.19,.08,.39,.06,.6-.03l3.44-1.61,.52,1.1-3.61,1.69c-.49,.23-.95,.26-1.39,.1-.42-.16-.73-.47-.95-.92l-.78-1.67Zm-3.94-3.84l8.08-3.79-.07-.15c-.06-.12-.15-.2-.28-.23-.11-.03-.23-.01-.36,.05l-7.19,3.37c-.29,.14-.39,.33-.27,.56l.09,.19Zm.72,1.53l8.08-3.79-.24-.52-8.08,3.79,.24,.52Zm8.56-2.77l-8.08,3.79,.06,.12c.12,.26,.3,.34,.54,.23l7.36-3.44c.1-.05,.17-.13,.21-.26,.03-.1,.02-.2-.03-.31l-.06-.12Zm-9.68-.55l-.28-.6,1.1-.52,.28,.6,6.45-3.02c.31-.14,.54-.22,.71-.22,.48-.02,.83,.2,1.05,.67l1.71,3.65c.16,.35,.18,.67,.06,.96-.13,.29-.37,.52-.74,.69l-7.91,3.7c-.39,.18-.73,.22-1.03,.12-.28-.1-.51-.34-.7-.73l-1.66-3.54c-.17-.35-.18-.68-.05-.98,.12-.26,.36-.48,.73-.66l.27-.13Zm2.57,10.4l-.51-1.09c.24-.14,.34-.35,.31-.65-.02-.17-.16-.61-.44-1.32l-.18-.48,1.1-.51c.11,.26,.29,.73,.55,1.42,.28,.74,.3,1.35,.04,1.83-.18,.34-.47,.61-.87,.81Z" style="fill: #1ba8ce;"/>
  <path d="M134.5,160.24l-.42-.58c-.48-.68-.45-1.4,.1-2.16l-.57-.82,1-.7,.56,.8,2.41-1.7-.55-.79,.99-.71,.56,.8,2.45-1.72-.56-.8,1-.7,.58,.84c.58-.17,1.07-.13,1.46,.11,.23,.13,.45,.35,.66,.66l.32,.47-.99,.7-.31-.44c-.27-.39-.66-.41-1.16-.06l-6.57,4.62c-.43,.31-.52,.65-.25,1.04l.3,.44-1.01,.71Zm2.63,3.78l-.7-1,5.42-3.81,.87-2.15c.08-.21,.09-.37,.01-.47-.03-.04-.07-.06-.13-.06-.08,0-.22,.07-.44,.23l-6.08,4.28-.71-1.02,6.52-4.59c.46-.32,.87-.48,1.23-.47,.38,0,.68,.15,.89,.45,.26,.37,.27,.83,.05,1.41l-.44,1.14,2.78-1.95,.7,1-3.28,2.31,.68,.96c.32,.45,.45,.92,.4,1.39-.06,.55-.33,1-.83,1.35l-1.99,1.4-.72-1.01,1.75-1.22c.24-.17,.38-.35,.41-.54,.03-.21-.02-.4-.14-.58l-.68-.97-5.57,3.92Z" style="fill: #1ba8ce;"/>
  <path d="M156.35,152.3l-7.11-6.94c-.25-.24-.38-.51-.4-.8-.02-.35,.08-.64,.3-.86l1.32-1.36c.27-.28,.56-.42,.87-.43s.63,.13,.94,.44l2.25,2.2c.19,.18,.3,.35,.35,.51,.03,.08,.04,.19,.05,.33,.24-.06,.46,0,.65,.19l2.62,2.54c.6,.58,.59,1.18-.01,1.81l-.73,.75-.88-.85,.44-.45c.15-.15,.22-.27,.22-.36,0-.11-.09-.23-.23-.37l-1.94-1.9c-.1-.1-.2-.15-.28-.15-.1,0-.23,.09-.41,.27l-.47,.49-.87-.85,.45-.46c.21-.21,.29-.37,.26-.48-.02-.09-.11-.21-.26-.35l-1.68-1.64c-.17-.17-.3-.26-.39-.26-.11,0-.23,.06-.37,.21l-.58,.59c-.17,.17-.24,.31-.23,.41,0,.07,.07,.17,.18,.28l6.8,6.63-.85,.87Zm-5.03,3.39l2.27-2.33c.14-.14,.21-.28,.21-.4,0-.11-.07-.24-.21-.38l-.92-.9c-.17-.16-.3-.25-.41-.26-.11-.01-.22,.05-.36,.19l-2.35,2.41c-.13,.13-.19,.25-.19,.37,0,.1,.07,.23,.23,.38l.99,.96c.15,.14,.28,.21,.39,.19,.11-.02,.23-.09,.36-.22Zm-1.18,1.28l-1.87-1.83c-.23-.22-.34-.49-.34-.8,0-.32,.13-.6,.37-.85l3.04-3.11c.26-.26,.54-.4,.86-.41,.3,0,.55,.08,.74,.27l1.89,1.85c.27,.27,.41,.55,.41,.86,0,.32-.11,.6-.34,.83l-3.08,3.15c-.23,.24-.5,.36-.81,.37-.32,0-.61-.11-.86-.35Zm-5.98-5.57l-.87-.85,2-2.05-.47-.46,.85-.87,.47,.46,2.01-2.06,.87,.85-4.86,4.98Zm2.56,2.5l-.87-.85,.53-.55-1.09-1.07,.85-.87,1.09,1.07,2.2-2.25-1.09-1.07,.85-.87,1.09,1.07,.43-.44,.87,.85-4.86,4.98Z" style="fill: #1ba8ce;"/>
  <path d="M96.89,186.1c-49.2,0-89.22-40.02-89.22-89.22S47.69,7.67,96.89,7.67s89.22,40.02,89.22,89.22-40.02,89.22-89.22,89.22m0-177.14C48.4,8.96,8.96,48.4,8.96,96.89s39.44,87.92,87.93,87.92,87.92-39.44,87.92-87.92S145.37,8.96,96.89,8.96" style="fill: #1ba8ce;"/>
  <path d="M33.41,125.34l-8,3.19-2.28-5.71,1.35-.54,1.61,4.04,1.89-.76-1.39-3.49,1.35-.54,1.39,3.49,3.4-1.36,.67,1.68Z" style="fill: #1ba8ce;"/>
  <path d="M28.82,111.54l.54,1.89-1.66,1.29,.98,3.46,2.08,.18,.53,1.85-9.24-1.01-.52-1.85,7.31-5.81Zm-2.37,4.14l-2.74,2.06,3.41,.3-.67-2.36Z" style="fill: #1ba8ce;"/>
  <path d="M24.75,105.9l.26-1.81c.99,.12,1.76,.47,2.3,1.03,.54,.56,.88,1.3,1.02,2.22,.18,1.16-.03,2.15-.62,2.97-.68,.95-1.71,1.53-3.08,1.74-1.45,.22-2.65-.02-3.6-.72-.82-.61-1.33-1.53-1.52-2.75-.15-.99-.01-1.87,.42-2.62,.31-.54,.82-.97,1.53-1.31l.68,1.71c-.44,.18-.76,.46-.96,.84-.19,.38-.26,.79-.18,1.25,.1,.66,.41,1.16,.92,1.5,.51,.34,1.29,.44,2.32,.28,1.07-.17,1.8-.49,2.19-.96,.39-.47,.54-1.03,.44-1.68-.07-.47-.28-.86-.62-1.16-.34-.3-.84-.48-1.49-.53Z" style="fill: #1ba8ce;"/>
  <path d="M18.91,102.93l-.05-1.81,4.66-.14c.73-.02,1.2-.06,1.41-.11,.38-.09,.67-.29,.86-.6,.2-.31,.29-.71,.28-1.2-.01-.42-.1-.76-.25-1.02-.16-.26-.36-.43-.63-.52-.26-.09-.82-.12-1.68-.09l-4.76,.14-.05-1.81,4.52-.14c1.16-.04,1.99,.02,2.51,.16s.95,.48,1.28,1.02c.34,.54,.52,1.26,.54,2.16,.03,.94-.08,1.67-.33,2.2-.25,.53-.61,.93-1.08,1.18s-1.35,.4-2.64,.43l-4.59,.14Z" style="fill: #1ba8ce;"/>
  <path d="M27.39,94.16l-8.51-.7,.15-1.8,7.06,.58,.37-4.49,1.45,.12-.52,6.29Z" style="fill: #1ba8ce;"/>
  <path d="M28.28,85.93l-7.05-1.22-.46,2.62-1.44-.25,1.22-7.02,1.44,.25-.45,2.62,7.05,1.22-.31,1.78Z" style="fill: #1ba8ce;"/>
  <path d="M29.85,78.64l-3.49-1-5.7,1.79,.58-2.04,3.86-1.09-2.7-2.94,.57-2,3.9,4.55,3.48,1-.5,1.74Z" style="fill: #1ba8ce;"/>
  <path d="M28.42,69.25c-.93-.44-1.61-.98-2.04-1.61s-.67-1.3-.69-2c-.03-.7,.15-1.45,.53-2.25,.55-1.16,1.35-1.94,2.39-2.34,1.04-.4,2.21-.3,3.5,.31,1.3,.62,2.14,1.49,2.5,2.61,.33,.99,.21,2.06-.34,3.23-.56,1.17-1.31,1.95-2.28,2.33-1.1,.43-2.29,.34-3.57-.27Zm.75-1.71c.89,.42,1.67,.53,2.32,.31,.65-.22,1.13-.65,1.43-1.29,.31-.64,.33-1.28,.09-1.92-.24-.63-.83-1.17-1.75-1.6-.9-.43-1.67-.54-2.29-.33-.63,.21-1.1,.65-1.41,1.31-.32,.67-.35,1.31-.12,1.94,.24,.62,.81,1.15,1.73,1.59Z" style="fill: #1ba8ce;"/>
  <path d="M36.54,62.47l-7.3-4.57,3.27-5.21,1.23,.77-2.31,3.68,1.73,1.08,2-3.19,1.24,.77-2,3.19,3.1,1.94-.96,1.53Z" style="fill: #1ba8ce;"/>
  <path d="M42.28,53.93l-6.71-5.41,1.13-1.41,6.71,5.41-1.13,1.41Z" style="fill: #1ba8ce;"/>
  <path d="M44.12,51.55l-6.23-5.95,1.22-1.27,6.7,1.32-4.16-3.97,1.17-1.22,6.23,5.95-1.26,1.32-6.56-1.27,4.06,3.88-1.17,1.22Z" style="fill: #1ba8ce;"/>
  <path d="M50.13,45.49l-5.52-6.62,4.72-3.94,.93,1.12-3.34,2.78,1.31,1.57,2.89-2.41,.93,1.12-2.89,2.41,2.34,2.81-1.39,1.16Z" style="fill: #1ba8ce;"/>
  <path d="M52.94,37.56c-.56-.86-.86-1.67-.9-2.44-.04-.77,.11-1.46,.46-2.07,.34-.61,.89-1.16,1.63-1.64,1.08-.7,2.16-.95,3.26-.75,1.1,.2,2.04,.9,2.82,2.1,.79,1.21,1.04,2.38,.77,3.53-.24,1.01-.9,1.87-1.98,2.57-1.09,.71-2.14,.97-3.16,.79-1.16-.21-2.13-.91-2.9-2.09Zm1.53-1.07c.54,.83,1.15,1.32,1.82,1.47,.67,.15,1.3,.04,1.9-.35,.6-.39,.96-.92,1.08-1.59,.12-.67-.09-1.43-.65-2.28-.55-.84-1.14-1.33-1.78-1.48-.64-.15-1.27-.03-1.89,.38-.62,.4-.99,.93-1.11,1.59-.12,.66,.09,1.41,.64,2.25Z" style="fill: #1ba8ce;"/>
  <path d="M63.36,35.96l-3.77-7.75,3.43-1.67c.88-.43,1.54-.66,1.98-.71,.44-.04,.87,.05,1.28,.27,.41,.23,.73,.58,.96,1.06,.29,.61,.35,1.18,.16,1.73-.19,.55-.6,1.04-1.23,1.46,.44,.03,.84,.1,1.18,.23,.34,.12,.86,.39,1.55,.81l1.71,1.04-1.94,.95-2-1.11c-.72-.4-1.2-.64-1.42-.72-.23-.08-.44-.11-.64-.08-.2,.02-.49,.13-.86,.31l-.33,.16,1.57,3.23-1.62,.79Zm-.55-5.26l1.21-.59c.74-.36,1.2-.61,1.37-.76,.18-.15,.29-.33,.34-.55s.01-.45-.11-.71c-.12-.25-.28-.41-.48-.5-.2-.09-.42-.11-.66-.06-.17,.03-.62,.23-1.35,.58l-1.28,.62,.96,1.97Z" style="fill: #1ba8ce;"/>
  <path d="M70.95,32.24l-2.71-8.17,2.57-.85,3.4,5.07-.32-6.09,2.58-.86,2.71,8.17-1.6,.53-2.14-6.44,.44,7-1.66,.55-3.82-5.88,2.14,6.44-1.6,.53Z" style="fill: #1ba8ce;"/>
  <path d="M88.32,27.75l-1.93,.37-1.14-1.77-3.53,.67-.36,2.06-1.89,.36,1.83-9.11,1.88-.36,5.14,7.79Zm-3.91-2.73l-1.81-2.91-.6,3.37,2.41-.46Z" style="fill: #1ba8ce;"/>
  <path d="M89.93,27.73l-.62-7.13-2.65,.23-.13-1.45,7.1-.62,.13,1.45-2.65,.23,.62,7.13-1.8,.16Z" style="fill: #1ba8ce;"/>
  <path d="M95.06,27.39l-.12-8.61,1.81-.02,.12,8.61-1.81,.02Z" style="fill: #1ba8ce;"/>
  <path d="M98.06,23.09c.08-1.02,.33-1.85,.77-2.48,.43-.63,.97-1.09,1.62-1.37s1.41-.38,2.29-.32c1.28,.1,2.29,.56,3.04,1.39,.75,.83,1.07,1.96,.96,3.38-.11,1.44-.62,2.53-1.53,3.27-.8,.66-1.85,.94-3.13,.84-1.29-.1-2.29-.53-2.99-1.29-.79-.87-1.14-2.01-1.03-3.42Zm1.87,.08c-.07,.99,.11,1.75,.55,2.28,.44,.53,1.01,.82,1.72,.87,.71,.05,1.32-.15,1.82-.6,.5-.46,.79-1.19,.87-2.21,.08-1-.1-1.75-.52-2.26-.42-.51-1-.79-1.73-.85-.74-.05-1.35,.14-1.85,.59-.5,.45-.79,1.17-.86,2.18Z" style="fill: #1ba8ce;"/>
  <path d="M107.3,28.09l1.72-8.44,1.73,.35,2.45,6.37,1.15-5.64,1.65,.34-1.72,8.44-1.78-.36-2.42-6.23-1.12,5.5-1.65-.34Z" style="fill: #1ba8ce;"/>
  <path d="M120.41,31.52l2.5-6.7-2.5-.93,.51-1.37,6.68,2.49-.51,1.37-2.49-.93-2.5,6.7-1.69-.63Z" style="fill: #1ba8ce;"/>
  <path d="M125.2,33.28l3.86-7.7,5.95,2.99-.65,1.3-4.34-2.18-.86,1.71,4.03,2.02-.65,1.3-4.03-2.02-1.05,2.09,4.48,2.25-.65,1.3-6.1-3.06Z" style="fill: #1ba8ce;"/>
  <path d="M138.7,37.36l1.17,1.41c-.76,.65-1.53,.99-2.3,1.01-.78,.02-1.55-.22-2.33-.74-.98-.64-1.57-1.46-1.79-2.45-.25-1.14,.01-2.3,.78-3.46,.81-1.23,1.79-1.96,2.95-2.19,1.01-.2,2.03,.04,3.06,.72,.84,.55,1.4,1.24,1.66,2.07,.19,.59,.17,1.26-.05,2.01l-1.72-.64c.16-.45,.17-.88,.02-1.27-.15-.4-.42-.72-.8-.98-.55-.36-1.13-.47-1.73-.32s-1.19,.66-1.76,1.53c-.6,.91-.85,1.66-.76,2.27s.41,1.09,.95,1.45c.4,.26,.82,.37,1.28,.32,.45-.05,.92-.3,1.39-.75Z" style="fill: #1ba8ce;"/>
  <path d="M139.25,41.6l5.58-6.56,1.38,1.17-2.2,2.58,2.71,2.31,2.2-2.58,1.38,1.17-5.58,6.56-1.38-1.17,2.44-2.87-2.71-2.31-2.44,2.87-1.38-1.17Z" style="fill: #1ba8ce;"/>
  <path d="M145.72,47.21l6.35-5.82,1.19,1.3-1.76,6.6,4.24-3.89,1.14,1.24-6.35,5.82-1.23-1.34,1.7-6.46-4.14,3.8-1.14-1.24Z" style="fill: #1ba8ce;"/>
  <path d="M154.63,50.74c.84-.59,1.64-.92,2.4-.99,.76-.07,1.46,.06,2.08,.38,.62,.32,1.19,.84,1.7,1.57,.74,1.05,1.03,2.13,.87,3.23-.16,1.11-.83,2.07-1.99,2.89-1.18,.83-2.34,1.13-3.5,.9-1.02-.2-1.9-.83-2.64-1.88-.75-1.06-1.05-2.1-.91-3.13,.17-1.17,.83-2.16,1.99-2.97Zm1.12,1.49c-.81,.57-1.28,1.2-1.41,1.87-.13,.68,.01,1.3,.42,1.88,.41,.58,.95,.92,1.62,1.02,.67,.1,1.42-.15,2.25-.73,.82-.58,1.29-1.19,1.42-1.84,.13-.65-.02-1.27-.45-1.88-.42-.6-.97-.95-1.63-1.05-.66-.1-1.4,.14-2.23,.72Z" style="fill: #1ba8ce;"/>
  <path d="M156.55,61.12l7.5-4.09,.87,1.59-6.22,3.39,2.16,3.96-1.28,.7-3.02-5.55Z" style="fill: #1ba8ce;"/>
  <path d="M163.7,65.49c.95-.38,1.81-.52,2.57-.41,.76,.11,1.41,.39,1.94,.85,.53,.46,.97,1.09,1.3,1.92,.48,1.19,.51,2.31,.1,3.34-.42,1.04-1.28,1.82-2.61,2.35-1.34,.54-2.54,.56-3.61,.07-.94-.43-1.66-1.24-2.14-2.44-.48-1.21-.54-2.29-.16-3.25,.43-1.1,1.31-1.91,2.62-2.44Zm.75,1.71c-.92,.37-1.52,.87-1.8,1.5-.28,.63-.29,1.27-.03,1.93,.27,.66,.71,1.12,1.34,1.37,.63,.25,1.42,.19,2.36-.19,.93-.37,1.53-.86,1.8-1.46,.27-.6,.27-1.25,0-1.93-.27-.68-.72-1.15-1.34-1.4-.62-.25-1.4-.19-2.34,.19Z" style="fill: #1ba8ce;"/>
  <path d="M167.38,79.17l1.41-.36,.96,3.78-3.33,.85c-.45-.29-.89-.75-1.32-1.39-.43-.63-.74-1.3-.92-2.01-.22-.86-.25-1.66-.08-2.4,.17-.74,.53-1.39,1.1-1.94,.56-.55,1.29-.94,2.19-1.17,.92-.23,1.75-.24,2.51-.02,.75,.22,1.37,.6,1.85,1.14,.48,.54,.83,1.24,1.05,2.1,.26,1.04,.27,1.92,0,2.65-.26,.73-.76,1.29-1.52,1.67l-.76-1.66c.4-.24,.66-.56,.8-.97,.14-.4,.15-.85,.03-1.33-.19-.75-.57-1.3-1.15-1.64-.58-.35-1.33-.4-2.27-.16-1.01,.26-1.71,.7-2.1,1.34-.34,.54-.42,1.18-.23,1.92,.09,.34,.24,.68,.46,1.02,.22,.34,.48,.62,.77,.85l1.06-.27-.51-2.01Z" style="fill: #1ba8ce;"/>
  <path d="M165.79,87.27l3.6-.46,4.54-3.88,.27,2.1-3.12,2.52,3.64,1.63,.26,2.07-5.37-2.65-3.59,.45-.23-1.79Z" style="fill: #1ba8ce;"/>
  <path d="M175.18,95.88l-.12,3.59c-.03,.98-.13,1.67-.28,2.06-.15,.39-.42,.72-.78,.98-.37,.26-.77,.38-1.22,.37-.42-.01-.79-.14-1.11-.39s-.56-.56-.71-.94c-.17,.53-.43,.93-.8,1.22-.37,.29-.81,.42-1.33,.41-.63-.02-1.15-.23-1.57-.63-.42-.4-.67-.86-.76-1.38-.06-.37-.06-1.21-.02-2.53l.1-3.05,8.61,.29Zm-4.92,1.64l-2.3-.08-.06,1.68c-.02,.74,0,1.21,.04,1.42,.05,.21,.17,.39,.34,.54,.17,.15,.4,.23,.67,.24,.28,0,.51-.06,.7-.21,.19-.15,.32-.34,.4-.59,.08-.25,.13-.76,.15-1.54l.05-1.47Zm3.42,.12l-1.99-.07-.04,1.19c-.02,.72-.03,1.16-.02,1.33,.03,.31,.12,.55,.29,.73,.16,.18,.38,.27,.67,.28,.25,0,.46-.06,.63-.19,.16-.14,.27-.31,.31-.51,.05-.2,.08-.78,.12-1.73l.04-1.04Z" style="fill: #1ba8ce;"/>
  <path d="M174.12,108.43l-.25,1.79-5.4-.76c-.87-.12-1.51-.33-1.9-.61-.39-.28-.67-.66-.84-1.13-.17-.47-.2-1.03-.11-1.68,.12-.85,.45-1.49,.98-1.91,.53-.42,1.26-.56,2.19-.44l-.05,1.72c-.5-.05-.87-.02-1.1,.09-.32,.15-.5,.42-.55,.81-.05,.38,.01,.67,.19,.88,.18,.21,.63,.36,1.34,.46l5.51,.78Z" style="fill: #1ba8ce;"/>
  <path d="M173.57,112.57l-.44,1.75-4.52-1.15c-.7-.18-1.17-.27-1.39-.28-.39-.02-.72,.1-.99,.34-.28,.24-.47,.6-.6,1.08-.1,.41-.12,.75-.04,1.05,.08,.29,.23,.52,.46,.68,.23,.16,.76,.34,1.59,.55l4.62,1.17-.44,1.75-4.39-1.11c-1.12-.28-1.91-.57-2.37-.84-.46-.28-.78-.72-.95-1.33-.17-.61-.15-1.35,.07-2.23,.23-.91,.54-1.58,.92-2.03,.38-.44,.84-.72,1.36-.83,.52-.11,1.41,0,2.66,.31l4.45,1.13Z" style="fill: #1ba8ce;"/>
  <path d="M162.22,120.63l6.7,2.52,.94-2.49,1.36,.51-2.51,6.67-1.36-.51,.94-2.49-6.7-2.52,.64-1.69Z" style="fill: #1ba8ce;"/>
  <path d="M96.89,160.09c-34.86,0-63.21-28.36-63.21-63.21s28.35-63.21,63.21-63.21,63.21,28.36,63.21,63.21-28.35,63.21-63.21,63.21m0-125.2c-34.18,0-61.99,27.81-61.99,61.99s27.81,61.98,61.99,61.98,61.98-27.81,61.98-61.98-27.81-61.99-61.98-61.99" style="fill: #1ba8ce;"/>
  <path d="M86.5,142.72v1.5h-7.57v-1.07c.82-1.51,2.02-2.83,3.6-3.97,1.57-1.11,2.32-2.09,2.25-2.95,0-1.07-.64-1.61-1.93-1.61-1,.04-1.66,.64-1.99,1.83l-1.72-.75c.68-1.83,1.99-2.74,3.92-2.74,2.22,.11,3.4,1.16,3.54,3.17,.18,1.43-.73,2.79-2.74,4.08-1.26,.94-2.15,1.77-2.68,2.53h5.31Z" style="fill: #1ba8ce;"/>
  <path d="M88.56,138.74c.07-3.79,1.36-5.73,3.86-5.8,2.61,0,3.92,1.93,3.92,5.8-.04,3.72-1.32,5.62-3.87,5.69-2.61,0-3.92-1.89-3.92-5.69m1.88,0c-.03,2.93,.65,4.35,2.04,4.24,1.36,.07,2.02-1.34,1.99-4.24,.04-2.93-.65-4.35-2.04-4.24-1.29,.07-1.95,1.49-1.99,4.24" style="fill: #1ba8ce;"/>
  <path d="M101.83,132.94h1.34v11.33h-1.77v-8.16c-.68,.5-1.63,1-2.84,1.5v-1.72c1.79-.75,2.88-1.74,3.27-2.95" style="fill: #1ba8ce;"/>
  <path d="M114.67,135.58l-1.72,.48c-.29-1.04-.88-1.54-1.77-1.5-1.61-.04-2.4,1.11-2.36,3.43,.57-.79,1.4-1.18,2.47-1.18,2.25,.11,3.43,1.36,3.54,3.76-.14,2.44-1.38,3.72-3.71,3.87-2.79,.07-4.17-1.73-4.13-5.42,0-4.04,1.41-6.07,4.24-6.07,1.75,.07,2.9,.95,3.43,2.63m-3.54,7.41c1.22-.03,1.84-.82,1.88-2.36-.04-1.47-.66-2.22-1.88-2.26-1.5,.04-2.27,.72-2.31,2.04,.04,1.68,.81,2.54,2.31,2.58" style="fill: #1ba8ce;"/>
  <polygon points="62.28 85.56 76.21 85.56 76.21 70.58 82.95 70.58 82.95 85.56 91.52 85.56 91.52 61.18 62.28 61.18 62.28 85.56" style="fill: #004f81;"/>
  <polygon points="109.98 91.81 109.98 106.61 103.24 106.61 103.24 91.81 96.96 91.81 96.96 116.19 131.49 116.19 131.49 91.81 109.98 91.81" style="fill: #004f81;"/>
  <polygon points="76.21 106.61 76.21 91.62 67.83 91.62 67.83 121.8 91.49 121.8 91.49 91.62 82.95 91.62 82.95 106.61 76.21 106.61" style="fill: #1ba8ce;"/>
  <polygon points="120.78 77.54 109.98 77.54 109.98 85.57 125.58 85.57 125.58 56.33 96.95 56.33 96.95 69.89 120.78 69.89 120.78 77.54" style="fill: #1ba8ce;"/>
  <rect x="96.95" y="77.54" width="6.29" height="8.02" style="fill: #1ba8ce;"/>
</svg>