<svg width="180" height="180" viewBox="-1 -1 31 31" xmlns="http://www.w3.org/2000/svg" xmlns:xlink="http://www.w3.org/1999/xlink" shape-rendering="geometricPrecision" id="qr code"><rect id="qr background" fill-opacity="1" fill="rgb(255, 255, 255)" x="-1" y="-1" width="31" height="31" ry="1.3499999999999999"></rect><path fill-opacity="1" fill="rgb(0, 0, 0)" id="qr dark pixels" fill-rule="evenodd" d="M 8 0.4a 0.4,0.4 0 0 1 0.4,-0.4L 8.6 0a 0.4,0.4 0 0 1 0.4,0.4L 9 0.6a 0.4,0.4 0 0 0 0.4,0.4L 10.6 1a 0.4,0.4 0 0 1 0.4,0.4L 11 1.6a 0.4,0.4 0 0 0 0.4,0.4L 11.6 2a 0.4,0.4 0 0 0 0.4,-0.4L 12 1.4a 0.4,0.4 0 0 0 -0.4,-0.4L 11.4 1a 0.4,0.4 0 0 1 -0.4,-0.4L 11 0.4a 0.4,0.4 0 0 1 0.4,-0.4L 12.6 0a 0.4,0.4 0 0 1 0.4,0.4L 13 0.6a 0.4,0.4 0 0 0 0.4,0.4L 13.6 1a 0.4,0.4 0 0 1 0.4,0.4L 14 1.6a 0.4,0.4 0 0 0 0.4,0.4L 14.6 2a 0.4,0.4 0 0 1 0.4,0.4L 15 2.6a 0.4,0.4 0 0 0 0.4,0.4L 16.6 3a 0.4,0.4 0 0 0 0.4,-0.4L 17 2.4a 0.4,0.4 0 0 0 -0.4,-0.4L 16.4 2a 0.4,0.4 0 0 1 -0.4,-0.4L 16 1.4a 0.4,0.4 0 0 1 0.4,-0.4L 17.6 1a 0.4,0.4 0 0 1 0.4,0.4L 18 2.6a 0.4,0.4 0 0 0 0.4,0.4L 18.6 3a 0.4,0.4 0 0 1 0.4,0.4L 19 3.6a 0.4,0.4 0 0 0 0.4,0.4L 19.6 4a 0.4,0.4 0 0 1 0.4,0.4L 20 4.6a 0.4,0.4 0 0 1 -0.4,0.4L 19.4 5a 0.4,0.4 0 0 0 -0.4,0.4L 19 6.6a 0.4,0.4 0 0 0 0.4,0.4L 19.6 7a 0.4,0.4 0 0 0 0.4,-0.4L 20 5.4a 0.4,0.4 0 0 1 0.4,-0.4L 20.6 5a 0.4,0.4 0 0 1 0.4,0.4L 21 7.6a 0.4,0.4 0 0 0 0.4,0.4L 24.6 8a 0.4,0.4 0 0 1 0.4,0.4L 25 8.6a 0.4,0.4 0 0 1 -0.4,0.4L 24.4 9a 0.4,0.4 0 0 0 -0.4,0.4L 24 9.6a 0.4,0.4 0 0 1 -0.4,0.4L 23.4 10a 0.4,0.4 0 0 0 -0.4,0.4L 23 10.6a 0.4,0.4 0 0 0 0.4,0.4L 23.6 11a 0.4,0.4 0 0 1 0.4,0.4L 24 13.6a 0.4,0.4 0 0 1 -0.4,0.4L 22.4 14a 0.4,0.4 0 0 1 -0.4,-0.4L 22 12.4a 0.4,0.4 0 0 0 -0.4,-0.4L 21.4 12a 0.4,0.4 0 0 0 -0.4,0.4L 21 13.6a 0.4,0.4 0 0 1 -0.4,0.4L 20.4 14a 0.4,0.4 0 0 0 -0.4,0.4L 20 14.6a 0.4,0.4 0 0 0 0.4,0.4L 20.6 15a 0.4,0.4 0 0 1 0.4,0.4L 21 17.6a 0.4,0.4 0 0 1 -0.4,0.4L 20.4 18a 0.4,0.4 0 0 0 -0.4,0.4L 20 19.6a 0.4,0.4 0 0 0 0.4,0.4L 20.6 20a 0.4,0.4 0 0 0 0.4,-0.4L 21 18.4a 0.4,0.4 0 0 1 0.4,-0.4L 21.6 18a 0.4,0.4 0 0 0 0.4,-0.4L 22 16.4a 0.4,0.4 0 0 1 0.4,-0.4L 22.6 16a 0.4,0.4 0 0 1 0.4,0.4L 23 16.6a 0.4,0.4 0 0 0 0.4,0.4L 23.6 17a 0.4,0.4 0 0 1 0.4,0.4L 24 18.6a 0.4,0.4 0 0 0 0.4,0.4L 24.6 19a 0.4,0.4 0 0 1 0.4,0.4L 25 19.6a 0.4,0.4 0 0 0 0.4,0.4L 25.6 20a 0.4,0.4 0 0 1 0.4,0.4L 26 20.6a 0.4,0.4 0 0 0 0.4,0.4L 26.6 21a 0.4,0.4 0 0 1 0.4,0.4L 27 21.6a 0.4,0.4 0 0 1 -0.4,0.4L 25.4 22a 0.4,0.4 0 0 0 -0.4,0.4L 25 23.6a 0.4,0.4 0 0 0 0.4,0.4L 25.6 24a 0.4,0.4 0 0 1 0.4,0.4L 26 24.6a 0.4,0.4 0 0 0 0.4,0.4L 26.6 25a 0.4,0.4 0 0 1 0.4,0.4L 27 25.6a 0.4,0.4 0 0 1 -0.4,0.4L 25.4 26a 0.4,0.4 0 0 0 -0.4,0.4L 25 26.6a 0.4,0.4 0 0 1 -0.4,0.4L 24.4 27a 0.4,0.4 0 0 0 -0.4,0.4L 24 27.6a 0.4,0.4 0 0 1 -0.4,0.4L 23.4 28a 0.4,0.4 0 0 1 -0.4,-0.4L 23 26.4a 0.4,0.4 0 0 1 0.4,-0.4L 23.6 26a 0.4,0.4 0 0 0 0.4,-0.4L 24 25.4a 0.4,0.4 0 0 0 -0.4,-0.4L 22.4 25a 0.4,0.4 0 0 0 -0.4,0.4L 22 25.6a 0.4,0.4 0 0 1 -0.4,0.4L 20.4 26a 0.4,0.4 0 0 1 -0.4,-0.4L 20 25.4a 0.4,0.4 0 0 0 -0.4,-0.4L 19.4 25a 0.4,0.4 0 0 1 -0.4,-0.4L 19 24.4a 0.4,0.4 0 0 0 -0.4,-0.4L 18.4 24a 0.4,0.4 0 0 1 -0.4,-0.4L 18 23.4a 0.4,0.4 0 0 1 0.4,-0.4L 19.6 23a 0.4,0.4 0 0 0 0.4,-0.4L 20 21.4a 0.4,0.4 0 0 0 -0.4,-0.4L 19.4 21a 0.4,0.4 0 0 1 -0.4,-0.4L 19 20.4a 0.4,0.4 0 0 0 -0.4,-0.4L 18.4 20a 0.4,0.4 0 0 1 -0.4,-0.4L 18 19.4a 0.4,0.4 0 0 1 0.4,-0.4L 18.6 19a 0.4,0.4 0 0 0 0.4,-0.4L 19 17.4a 0.4,0.4 0 0 1 0.4,-0.4L 19.6 17a 0.4,0.4 0 0 0 0.4,-0.4L 20 16.4a 0.4,0.4 0 0 0 -0.4,-0.4L 18.4 16a 0.4,0.4 0 0 1 -0.4,-0.4L 18 14.4a 0.4,0.4 0 0 1 0.4,-0.4L 18.6 14a 0.4,0.4 0 0 0 0.4,-0.4L 19 13.4a 0.4,0.4 0 0 1 0.4,-0.4L 19.6 13a 0.4,0.4 0 0 0 0.4,-0.4L 20 11.4a 0.4,0.4 0 0 1 0.4,-0.4L 20.6 11a 0.4,0.4 0 0 0 0.4,-0.4L 21 10.4a 0.4,0.4 0 0 1 0.4,-0.4L 21.6 10a 0.4,0.4 0 0 0 0.4,-0.4L 22 9.4a 0.4,0.4 0 0 0 -0.4,-0.4L 20.4 9a 0.4,0.4 0 0 1 -0.4,-0.4L 20 8.4a 0.4,0.4 0 0 0 -0.4,-0.4L 19.4 8a 0.4,0.4 0 0 0 -0.4,0.4L 19 8.6a 0.4,0.4 0 0 0 0.4,0.4L 19.6 9a 0.4,0.4 0 0 1 0.4,0.4L 20 10.6a 0.4,0.4 0 0 1 -0.4,0.4L 19.4 11a 0.4,0.4 0 0 1 -0.4,-0.4L 19 10.4a 0.4,0.4 0 0 0 -0.4,-0.4L 18.4 10a 0.4,0.4 0 0 1 -0.4,-0.4L 18 4.4a 0.4,0.4 0 0 0 -0.4,-0.4L 16.4 4a 0.4,0.4 0 0 0 -0.4,0.4L 16 4.6a 0.4,0.4 0 0 1 -0.4,0.4L 15.4 5a 0.4,0.4 0 0 1 -0.4,-0.4L 15 4.4a 0.4,0.4 0 0 0 -0.4,-0.4L 14.4 4a 0.4,0.4 0 0 1 -0.4,-0.4L 14 3.4a 0.4,0.4 0 0 0 -0.4,-0.4L 11.4 3a 0.4,0.4 0 0 0 -0.4,0.4L 11 3.6a 0.4,0.4 0 0 0 0.4,0.4L 11.6 4a 0.4,0.4 0 0 1 0.4,0.4L 12 5.6a 0.4,0.4 0 0 1 -0.4,0.4L 11.4 6a 0.4,0.4 0 0 1 -0.4,-0.4L 11 5.4a 0.4,0.4 0 0 0 -0.4,-0.4L 9.4 5a 0.4,0.4 0 0 0 -0.4,0.4L 9 7.6a 0.4,0.4 0 0 0 0.4,0.4L 9.6 8a 0.4,0.4 0 0 0 0.4,-0.4L 10 6.4a 0.4,0.4 0 0 1 0.4,-0.4L 10.6 6a 0.4,0.4 0 0 1 0.4,0.4L 11 6.6a 0.4,0.4 0 0 0 0.4,0.4L 11.6 7a 0.4,0.4 0 0 0 0.4,-0.4L 12 6.4a 0.4,0.4 0 0 1 0.4,-0.4L 12.6 6a 0.4,0.4 0 0 1 0.4,0.4L 13 7.6a 0.4,0.4 0 0 1 -0.4,0.4L 11.4 8a 0.4,0.4 0 0 0 -0.4,0.4L 11 9.6a 0.4,0.4 0 0 1 -0.4,0.4L 9.4 10a 0.4,0.4 0 0 1 -0.4,-0.4L 9 9.4a 0.4,0.4 0 0 0 -0.4,-0.4L 8.4 9a 0.4,0.4 0 0 1 -0.4,-0.4L 8 4.4a 0.4,0.4 0 0 1 0.4,-0.4L 9.6 4a 0.4,0.4 0 0 0 0.4,-0.4L 10 2.4a 0.4,0.4 0 0 0 -0.4,-0.4L 8.4 2a 0.4,0.4 0 0 1 -0.4,-0.4zM 22 19.4a 0.4,0.4 0 0 1 0.4,-0.4L 22.6 19a 0.4,0.4 0 0 1 0.4,0.4L 23 19.6a 0.4,0.4 0 0 1 -0.4,0.4L 22.4 20a 0.4,0.4 0 0 1 -0.4,-0.4z M 21 21.4a 0.4,0.4 0 0 1 0.4,-0.4L 23.6 21a 0.4,0.4 0 0 1 0.4,0.4L 24 23.6a 0.4,0.4 0 0 1 -0.4,0.4L 21.4 24a 0.4,0.4 0 0 1 -0.4,-0.4z M 14 0.4a 0.4,0.4 0 0 1 0.4,-0.4L 14.6 0a 0.4,0.4 0 0 1 0.4,0.4L 15 0.6a 0.4,0.4 0 0 1 -0.4,0.4L 14.4 1a 0.4,0.4 0 0 1 -0.4,-0.4z M 18 0.4a 0.4,0.4 0 0 1 0.4,-0.4L 19.6 0a 0.4,0.4 0 0 1 0.4,0.4L 20 0.6a 0.4,0.4 0 0 1 -0.4,0.4L 18.4 1a 0.4,0.4 0 0 1 -0.4,-0.4z M 20 1.4a 0.4,0.4 0 0 1 0.4,-0.4L 20.6 1a 0.4,0.4 0 0 1 0.4,0.4L 21 1.6a 0.4,0.4 0 0 1 -0.4,0.4L 20.4 2a 0.4,0.4 0 0 1 -0.4,-0.4z M 19 2.4a 0.4,0.4 0 0 1 0.4,-0.4L 19.6 2a 0.4,0.4 0 0 1 0.4,0.4L 20 2.6a 0.4,0.4 0 0 1 -0.4,0.4L 19.4 3a 0.4,0.4 0 0 1 -0.4,-0.4z M 13 5.4a 0.4,0.4 0 0 1 0.4,-0.4L 13.6 5a 0.4,0.4 0 0 1 0.4,0.4L 14 5.6a 0.4,0.4 0 0 1 -0.4,0.4L 13.4 6a 0.4,0.4 0 0 1 -0.4,-0.4z M 14 6.4a 0.4,0.4 0 0 1 0.4,-0.4L 14.6 6a 0.4,0.4 0 0 1 0.4,0.4L 15 6.6a 0.4,0.4 0 0 1 -0.4,0.4L 14.4 7a 0.4,0.4 0 0 1 -0.4,-0.4z M 16 6.4a 0.4,0.4 0 0 1 0.4,-0.4L 16.6 6a 0.4,0.4 0 0 1 0.4,0.4L 17 9.6a 0.4,0.4 0 0 0 0.4,0.4L 17.6 10a 0.4,0.4 0 0 1 0.4,0.4L 18 10.6a 0.4,0.4 0 0 1 -0.4,0.4L 16.4 11a 0.4,0.4 0 0 0 -0.4,0.4L 16 11.6a 0.4,0.4 0 0 1 -0.4,0.4L 15.4 12a 0.4,0.4 0 0 0 -0.4,0.4L 15 13.6a 0.4,0.4 0 0 0 0.4,0.4L 15.6 14a 0.4,0.4 0 0 1 0.4,0.4L 16 14.6a 0.4,0.4 0 0 1 -0.4,0.4L 14.4 15a 0.4,0.4 0 0 1 -0.4,-0.4L 14 11.4a 0.4,0.4 0 0 1 0.4,-0.4L 14.6 11a 0.4,0.4 0 0 0 0.4,-0.4L 15 7.4a 0.4,0.4 0 0 1 0.4,-0.4L 15.6 7a 0.4,0.4 0 0 0 0.4,-0.4z M 0 8.4a 0.4,0.4 0 0 1 0.4,-0.4L 2.6 8a 0.4,0.4 0 0 1 0.4,0.4L 3 8.6a 0.4,0.4 0 0 0 0.4,0.4L 3.6 9a 0.4,0.4 0 0 1 0.4,0.4L 4 10.6a 0.4,0.4 0 0 1 -0.4,0.4L 2.4 11a 0.4,0.4 0 0 1 -0.4,-0.4L 2 9.4a 0.4,0.4 0 0 0 -0.4,-0.4L 0.4 9a 0.4,0.4 0 0 1 -0.4,-0.4z M 5 8.4a 0.4,0.4 0 0 1 0.4,-0.4L 6.6 8a 0.4,0.4 0 0 1 0.4,0.4L 7 8.6a 0.4,0.4 0 0 1 -0.4,0.4L 6.4 9a 0.4,0.4 0 0 0 -0.4,0.4L 6 9.6a 0.4,0.4 0 0 1 -0.4,0.4L 5.4 10a 0.4,0.4 0 0 1 -0.4,-0.4z M 27 8.4a 0.4,0.4 0 0 1 0.4,-0.4L 28.6 8a 0.4,0.4 0 0 1 0.4,0.4L 29 10.6a 0.4,0.4 0 0 1 -0.4,0.4L 28.4 11a 0.4,0.4 0 0 1 -0.4,-0.4L 28 10.4a 0.4,0.4 0 0 0 -0.4,-0.4L 27.4 10a 0.4,0.4 0 0 1 -0.4,-0.4z M 7 9.4a 0.4,0.4 0 0 1 0.4,-0.4L 7.6 9a 0.4,0.4 0 0 1 0.4,0.4L 8 9.6a 0.4,0.4 0 0 1 -0.4,0.4L 7.4 10a 0.4,0.4 0 0 1 -0.4,-0.4z M 13 9.4a 0.4,0.4 0 0 1 0.4,-0.4L 13.6 9a 0.4,0.4 0 0 1 0.4,0.4L 14 9.6a 0.4,0.4 0 0 1 -0.4,0.4L 13.4 10a 0.4,0.4 0 0 1 -0.4,-0.4z M 6 10.4a 0.4,0.4 0 0 1 0.4,-0.4L 6.6 10a 0.4,0.4 0 0 1 0.4,0.4L 7 10.6a 0.4,0.4 0 0 1 -0.4,0.4L 6.4 11a 0.4,0.4 0 0 1 -0.4,-0.4z M 8 10.4a 0.4,0.4 0 0 1 0.4,-0.4L 8.6 10a 0.4,0.4 0 0 1 0.4,0.4L 9 10.6a 0.4,0.4 0 0 0 0.4,0.4L 9.6 11a 0.4,0.4 0 0 1 0.4,0.4L 10 13.6a 0.4,0.4 0 0 1 -0.4,0.4L 9.4 14a 0.4,0.4 0 0 1 -0.4,-0.4L 9 12.4a 0.4,0.4 0 0 0 -0.4,-0.4L 8.4 12a 0.4,0.4 0 0 1 -0.4,-0.4z M 11 10.4a 0.4,0.4 0 0 1 0.4,-0.4L 11.6 10a 0.4,0.4 0 0 1 0.4,0.4L 12 10.6a 0.4,0.4 0 0 1 -0.4,0.4L 11.4 11a 0.4,0.4 0 0 1 -0.4,-0.4z M 24 10.4a 0.4,0.4 0 0 1 0.4,-0.4L 26.6 10a 0.4,0.4 0 0 1 0.4,0.4L 27 10.6a 0.4,0.4 0 0 1 -0.4,0.4L 26.4 11a 0.4,0.4 0 0 0 -0.4,0.4L 26 11.6a 0.4,0.4 0 0 1 -0.4,0.4L 25.4 12a 0.4,0.4 0 0 1 -0.4,-0.4L 25 11.4a 0.4,0.4 0 0 0 -0.4,-0.4L 24.4 11a 0.4,0.4 0 0 1 -0.4,-0.4z M 0 11.4a 0.4,0.4 0 0 1 0.4,-0.4L 1.6 11a 0.4,0.4 0 0 1 0.4,0.4L 2 11.6a 0.4,0.4 0 0 1 -0.4,0.4L 0.4 12a 0.4,0.4 0 0 1 -0.4,-0.4z M 4 11.4a 0.4,0.4 0 0 1 0.4,-0.4L 5.6 11a 0.4,0.4 0 0 1 0.4,0.4L 6 11.6a 0.4,0.4 0 0 0 0.4,0.4L 6.6 12a 0.4,0.4 0 0 1 0.4,0.4L 7 12.6a 0.4,0.4 0 0 1 -0.4,0.4L 3.4 13a 0.4,0.4 0 0 1 -0.4,-0.4L 3 12.4a 0.4,0.4 0 0 1 0.4,-0.4L 3.6 12a 0.4,0.4 0 0 0 0.4,-0.4z M 18 11.4a 0.4,0.4 0 0 1 0.4,-0.4L 18.6 11a 0.4,0.4 0 0 1 0.4,0.4L 19 11.6a 0.4,0.4 0 0 1 -0.4,0.4L 18.4 12a 0.4,0.4 0 0 1 -0.4,-0.4z M 11 12.4a 0.4,0.4 0 0 1 0.4,-0.4L 12.6 12a 0.4,0.4 0 0 1 0.4,0.4L 13 15.6a 0.4,0.4 0 0 1 -0.4,0.4L 11.4 16a 0.4,0.4 0 0 0 -0.4,0.4L 11 16.6a 0.4,0.4 0 0 1 -0.4,0.4L 10.4 17a 0.4,0.4 0 0 1 -0.4,-0.4L 10 15.4a 0.4,0.4 0 0 1 0.4,-0.4L 11.6 15a 0.4,0.4 0 0 0 0.4,-0.4L 12 13.4a 0.4,0.4 0 0 0 -0.4,-0.4L 11.4 13a 0.4,0.4 0 0 1 -0.4,-0.4z M 16 12.4a 0.4,0.4 0 0 1 0.4,-0.4L 16.6 12a 0.4,0.4 0 0 1 0.4,0.4L 17 12.6a 0.4,0.4 0 0 0 0.4,0.4L 17.6 13a 0.4,0.4 0 0 1 0.4,0.4L 18 13.6a 0.4,0.4 0 0 1 -0.4,0.4L 16.4 14a 0.4,0.4 0 0 1 -0.4,-0.4z M 28 12.4a 0.4,0.4 0 0 1 0.4,-0.4L 28.6 12a 0.4,0.4 0 0 1 0.4,0.4L 29 14.6a 0.4,0.4 0 0 1 -0.4,0.4L 28.4 15a 0.4,0.4 0 0 1 -0.4,-0.4L 28 14.4a 0.4,0.4 0 0 0 -0.4,-0.4L 27.4 14a 0.4,0.4 0 0 1 -0.4,-0.4L 27 13.4a 0.4,0.4 0 0 1 0.4,-0.4L 27.6 13a 0.4,0.4 0 0 0 0.4,-0.4z M 0 13.4a 0.4,0.4 0 0 1 0.4,-0.4L 2.6 13a 0.4,0.4 0 0 1 0.4,0.4L 3 13.6a 0.4,0.4 0 0 1 -0.4,0.4L 0.4 14a 0.4,0.4 0 0 1 -0.4,-0.4z M 7 13.4a 0.4,0.4 0 0 1 0.4,-0.4L 7.6 13a 0.4,0.4 0 0 1 0.4,0.4L 8 13.6a 0.4,0.4 0 0 1 -0.4,0.4L 7.4 14a 0.4,0.4 0 0 1 -0.4,-0.4z M 4 14.4a 0.4,0.4 0 0 1 0.4,-0.4L 4.6 14a 0.4,0.4 0 0 1 0.4,0.4L 5 14.6a 0.4,0.4 0 0 1 -0.4,0.4L 4.4 15a 0.4,0.4 0 0 1 -0.4,-0.4z M 6 14.4a 0.4,0.4 0 0 1 0.4,-0.4L 6.6 14a 0.4,0.4 0 0 1 0.4,0.4L 7 14.6a 0.4,0.4 0 0 1 -0.4,0.4L 6.4 15a 0.4,0.4 0 0 1 -0.4,-0.4z M 8 14.4a 0.4,0.4 0 0 1 0.4,-0.4L 8.6 14a 0.4,0.4 0 0 1 0.4,0.4L 9 14.6a 0.4,0.4 0 0 1 -0.4,0.4L 8.4 15a 0.4,0.4 0 0 1 -0.4,-0.4z M 21 14.4a 0.4,0.4 0 0 1 0.4,-0.4L 21.6 14a 0.4,0.4 0 0 1 0.4,0.4L 22 14.6a 0.4,0.4 0 0 1 -0.4,0.4L 21.4 15a 0.4,0.4 0 0 1 -0.4,-0.4z M 2 15.4a 0.4,0.4 0 0 1 0.4,-0.4L 2.6 15a 0.4,0.4 0 0 1 0.4,0.4L 3 17.6a 0.4,0.4 0 0 1 -0.4,0.4L 2.4 18a 0.4,0.4 0 0 0 -0.4,0.4L 2 18.6a 0.4,0.4 0 0 1 -0.4,0.4L 0.4 19a 0.4,0.4 0 0 1 -0.4,-0.4L 0 18.4a 0.4,0.4 0 0 1 0.4,-0.4L 0.6 18a 0.4,0.4 0 0 0 0.4,-0.4L 1 17.4a 0.4,0.4 0 0 1 0.4,-0.4L 1.6 17a 0.4,0.4 0 0 0 0.4,-0.4z M 5 15.4a 0.4,0.4 0 0 1 0.4,-0.4L 5.6 15a 0.4,0.4 0 0 1 0.4,0.4L 6 15.6a 0.4,0.4 0 0 0 0.4,0.4L 6.6 16a 0.4,0.4 0 0 1 0.4,0.4L 7 16.6a 0.4,0.4 0 0 1 -0.4,0.4L 6.4 17a 0.4,0.4 0 0 0 -0.4,0.4L 6 17.6a 0.4,0.4 0 0 1 -0.4,0.4L 5.4 18a 0.4,0.4 0 0 0 -0.4,0.4L 5 19.6a 0.4,0.4 0 0 0 0.4,0.4L 6.6 20a 0.4,0.4 0 0 1 0.4,0.4L 7 20.6a 0.4,0.4 0 0 1 -0.4,0.4L 4.4 21a 0.4,0.4 0 0 1 -0.4,-0.4L 4 20.4a 0.4,0.4 0 0 0 -0.4,-0.4L 3.4 20a 0.4,0.4 0 0 0 -0.4,0.4L 3 20.6a 0.4,0.4 0 0 1 -0.4,0.4L 0.4 21a 0.4,0.4 0 0 1 -0.4,-0.4L 0 20.4a 0.4,0.4 0 0 1 0.4,-0.4L 1.6 20a 0.4,0.4 0 0 0 0.4,-0.4L 2 19.4a 0.4,0.4 0 0 1 0.4,-0.4L 2.6 19a 0.4,0.4 0 0 0 0.4,-0.4L 3 18.4a 0.4,0.4 0 0 1 0.4,-0.4L 3.6 18a 0.4,0.4 0 0 0 0.4,-0.4L 4 17.4a 0.4,0.4 0 0 1 0.4,-0.4L 4.6 17a 0.4,0.4 0 0 0 0.4,-0.4z M 23 15.4a 0.4,0.4 0 0 1 0.4,-0.4L 23.6 15a 0.4,0.4 0 0 1 0.4,0.4L 24 15.6a 0.4,0.4 0 0 1 -0.4,0.4L 23.4 16a 0.4,0.4 0 0 1 -0.4,-0.4z M 13 16.4a 0.4,0.4 0 0 1 0.4,-0.4L 13.6 16a 0.4,0.4 0 0 1 0.4,0.4L 14 16.6a 0.4,0.4 0 0 1 -0.4,0.4L 13.4 17a 0.4,0.4 0 0 1 -0.4,-0.4z M 15 16.4a 0.4,0.4 0 0 1 0.4,-0.4L 16.6 16a 0.4,0.4 0 0 1 0.4,0.4L 17 17.6a 0.4,0.4 0 0 0 0.4,0.4L 17.6 18a 0.4,0.4 0 0 1 0.4,0.4L 18 18.6a 0.4,0.4 0 0 1 -0.4,0.4L 17.4 19a 0.4,0.4 0 0 0 -0.4,0.4L 17 19.6a 0.4,0.4 0 0 1 -0.4,0.4L 16.4 20a 0.4,0.4 0 0 1 -0.4,-0.4L 16 19.4a 0.4,0.4 0 0 0 -0.4,-0.4L 15.4 19a 0.4,0.4 0 0 1 -0.4,-0.4z M 28 16.4a 0.4,0.4 0 0 1 0.4,-0.4L 28.6 16a 0.4,0.4 0 0 1 0.4,0.4L 29 18.6a 0.4,0.4 0 0 1 -0.4,0.4L 28.4 19a 0.4,0.4 0 0 1 -0.4,-0.4L 28 18.4a 0.4,0.4 0 0 0 -0.4,-0.4L 26.4 18a 0.4,0.4 0 0 1 -0.4,-0.4L 26 17.4a 0.4,0.4 0 0 1 0.4,-0.4L 27.6 17a 0.4,0.4 0 0 0 0.4,-0.4z M 8 17.4a 0.4,0.4 0 0 1 0.4,-0.4L 8.6 17a 0.4,0.4 0 0 1 0.4,0.4L 9 17.6a 0.4,0.4 0 0 0 0.4,0.4L 9.6 18a 0.4,0.4 0 0 1 0.4,0.4L 10 18.6a 0.4,0.4 0 0 1 -0.4,0.4L 8.4 19a 0.4,0.4 0 0 1 -0.4,-0.4z M 6 18.4a 0.4,0.4 0 0 1 0.4,-0.4L 6.6 18a 0.4,0.4 0 0 1 0.4,0.4L 7 18.6a 0.4,0.4 0 0 1 -0.4,0.4L 6.4 19a 0.4,0.4 0 0 1 -0.4,-0.4z M 11 18.4a 0.4,0.4 0 0 1 0.4,-0.4L 11.6 18a 0.4,0.4 0 0 1 0.4,0.4L 12 18.6a 0.4,0.4 0 0 1 -0.4,0.4L 11.4 19a 0.4,0.4 0 0 1 -0.4,-0.4z M 25 18.4a 0.4,0.4 0 0 1 0.4,-0.4L 25.6 18a 0.4,0.4 0 0 1 0.4,0.4L 26 18.6a 0.4,0.4 0 0 1 -0.4,0.4L 25.4 19a 0.4,0.4 0 0 1 -0.4,-0.4z M 7 19.4a 0.4,0.4 0 0 1 0.4,-0.4L 7.6 19a 0.4,0.4 0 0 1 0.4,0.4L 8 19.6a 0.4,0.4 0 0 1 -0.4,0.4L 7.4 20a 0.4,0.4 0 0 1 -0.4,-0.4z M 10 19.4a 0.4,0.4 0 0 1 0.4,-0.4L 10.6 19a 0.4,0.4 0 0 1 0.4,0.4L 11 19.6a 0.4,0.4 0 0 0 0.4,0.4L 12.6 20a 0.4,0.4 0 0 1 0.4,0.4L 13 20.6a 0.4,0.4 0 0 0 0.4,0.4L 14.6 21a 0.4,0.4 0 0 1 0.4,0.4L 15 21.6a 0.4,0.4 0 0 0 0.4,0.4L 15.6 22a 0.4,0.4 0 0 1 0.4,0.4L 16 22.6a 0.4,0.4 0 0 1 -0.4,0.4L 13.4 23a 0.4,0.4 0 0 0 -0.4,0.4L 13 24.6a 0.4,0.4 0 0 1 -0.4,0.4L 12.4 25a 0.4,0.4 0 0 1 -0.4,-0.4L 12 24.4a 0.4,0.4 0 0 0 -0.4,-0.4L 10.4 24a 0.4,0.4 0 0 0 -0.4,0.4L 10 24.6a 0.4,0.4 0 0 0 0.4,0.4L 10.6 25a 0.4,0.4 0 0 1 0.4,0.4L 11 25.6a 0.4,0.4 0 0 1 -0.4,0.4L 10.4 26a 0.4,0.4 0 0 0 -0.4,0.4L 10 26.6a 0.4,0.4 0 0 1 -0.4,0.4L 9.4 27a 0.4,0.4 0 0 0 -0.4,0.4L 9 27.6a 0.4,0.4 0 0 0 0.4,0.4L 9.6 28a 0.4,0.4 0 0 1 0.4,0.4L 10 28.6a 0.4,0.4 0 0 1 -0.4,0.4L 8.4 29a 0.4,0.4 0 0 1 -0.4,-0.4L 8 26.4a 0.4,0.4 0 0 1 0.4,-0.4L 8.6 26a 0.4,0.4 0 0 0 0.4,-0.4L 9 24.4a 0.4,0.4 0 0 0 -0.4,-0.4L 8.4 24a 0.4,0.4 0 0 1 -0.4,-0.4L 8 23.4a 0.4,0.4 0 0 1 0.4,-0.4L 9.6 23a 0.4,0.4 0 0 0 0.4,-0.4L 10 21.4a 0.4,0.4 0 0 0 -0.4,-0.4L 9.4 21a 0.4,0.4 0 0 0 -0.4,0.4L 9 21.6a 0.4,0.4 0 0 1 -0.4,0.4L 8.4 22a 0.4,0.4 0 0 1 -0.4,-0.4L 8 20.4a 0.4,0.4 0 0 1 0.4,-0.4L 9.6 20a 0.4,0.4 0 0 0 0.4,-0.4zM 11 21.4a 0.4,0.4 0 0 1 0.4,-0.4L 11.6 21a 0.4,0.4 0 0 1 0.4,0.4L 12 22.6a 0.4,0.4 0 0 1 -0.4,0.4L 11.4 23a 0.4,0.4 0 0 1 -0.4,-0.4z M 14 19.4a 0.4,0.4 0 0 1 0.4,-0.4L 14.6 19a 0.4,0.4 0 0 1 0.4,0.4L 15 19.6a 0.4,0.4 0 0 1 -0.4,0.4L 14.4 20a 0.4,0.4 0 0 1 -0.4,-0.4z M 15 20.4a 0.4,0.4 0 0 1 0.4,-0.4L 15.6 20a 0.4,0.4 0 0 1 0.4,0.4L 16 20.6a 0.4,0.4 0 0 1 -0.4,0.4L 15.4 21a 0.4,0.4 0 0 1 -0.4,-0.4z M 17 20.4a 0.4,0.4 0 0 1 0.4,-0.4L 17.6 20a 0.4,0.4 0 0 1 0.4,0.4L 18 20.6a 0.4,0.4 0 0 1 -0.4,0.4L 17.4 21a 0.4,0.4 0 0 1 -0.4,-0.4z M 27 20.4a 0.4,0.4 0 0 1 0.4,-0.4L 27.6 20a 0.4,0.4 0 0 1 0.4,0.4L 28 20.6a 0.4,0.4 0 0 1 -0.4,0.4L 27.4 21a 0.4,0.4 0 0 1 -0.4,-0.4z M 16 21.4a 0.4,0.4 0 0 1 0.4,-0.4L 16.6 21a 0.4,0.4 0 0 1 0.4,0.4L 17 21.6a 0.4,0.4 0 0 1 -0.4,0.4L 16.4 22a 0.4,0.4 0 0 1 -0.4,-0.4z M 18 21.4a 0.4,0.4 0 0 1 0.4,-0.4L 18.6 21a 0.4,0.4 0 0 1 0.4,0.4L 19 21.6a 0.4,0.4 0 0 1 -0.4,0.4L 18.4 22a 0.4,0.4 0 0 1 -0.4,-0.4z M 28 21.4a 0.4,0.4 0 0 1 0.4,-0.4L 28.6 21a 0.4,0.4 0 0 1 0.4,0.4L 29 22.6a 0.4,0.4 0 0 1 -0.4,0.4L 28.4 23a 0.4,0.4 0 0 1 -0.4,-0.4z M 22 22.4a 0.4,0.4 0 0 1 0.4,-0.4L 22.6 22a 0.4,0.4 0 0 1 0.4,0.4L 23 22.6a 0.4,0.4 0 0 1 -0.4,0.4L 22.4 23a 0.4,0.4 0 0 1 -0.4,-0.4z M 16 23.4a 0.4,0.4 0 0 1 0.4,-0.4L 16.6 23a 0.4,0.4 0 0 1 0.4,0.4L 17 23.6a 0.4,0.4 0 0 1 -0.4,0.4L 16.4 24a 0.4,0.4 0 0 1 -0.4,-0.4z M 15 24.4a 0.4,0.4 0 0 1 0.4,-0.4L 15.6 24a 0.4,0.4 0 0 1 0.4,0.4L 16 24.6a 0.4,0.4 0 0 1 -0.4,0.4L 15.4 25a 0.4,0.4 0 0 1 -0.4,-0.4z M 17 24.4a 0.4,0.4 0 0 1 0.4,-0.4L 17.6 24a 0.4,0.4 0 0 1 0.4,0.4L 18 24.6a 0.4,0.4 0 0 0 0.4,0.4L 18.6 25a 0.4,0.4 0 0 1 0.4,0.4L 19 27.6a 0.4,0.4 0 0 0 0.4,0.4L 19.6 28a 0.4,0.4 0 0 0 0.4,-0.4L 20 27.4a 0.4,0.4 0 0 1 0.4,-0.4L 21.6 27a 0.4,0.4 0 0 1 0.4,0.4L 22 27.6a 0.4,0.4 0 0 0 0.4,0.4L 22.6 28a 0.4,0.4 0 0 1 0.4,0.4L 23 28.6a 0.4,0.4 0 0 1 -0.4,0.4L 18.4 29a 0.4,0.4 0 0 1 -0.4,-0.4L 18 27.4a 0.4,0.4 0 0 0 -0.4,-0.4L 17.4 27a 0.4,0.4 0 0 1 -0.4,-0.4L 17 26.4a 0.4,0.4 0 0 0 -0.4,-0.4L 16.4 26a 0.4,0.4 0 0 1 -0.4,-0.4L 16 25.4a 0.4,0.4 0 0 1 0.4,-0.4L 16.6 25a 0.4,0.4 0 0 0 0.4,-0.4z M 13 25.4a 0.4,0.4 0 0 1 0.4,-0.4L 13.6 25a 0.4,0.4 0 0 1 0.4,0.4L 14 26.6a 0.4,0.4 0 0 1 -0.4,0.4L 13.4 27a 0.4,0.4 0 0 1 -0.4,-0.4z M 28 25.4a 0.4,0.4 0 0 1 0.4,-0.4L 28.6 25a 0.4,0.4 0 0 1 0.4,0.4L 29 26.6a 0.4,0.4 0 0 1 -0.4,0.4L 27.4 27a 0.4,0.4 0 0 1 -0.4,-0.4L 27 26.4a 0.4,0.4 0 0 1 0.4,-0.4L 27.6 26a 0.4,0.4 0 0 0 0.4,-0.4z M 11 26.4a 0.4,0.4 0 0 1 0.4,-0.4L 11.6 26a 0.4,0.4 0 0 1 0.4,0.4L 12 26.6a 0.4,0.4 0 0 0 0.4,0.4L 12.6 27a 0.4,0.4 0 0 1 0.4,0.4L 13 27.6a 0.4,0.4 0 0 1 -0.4,0.4L 12.4 28a 0.4,0.4 0 0 0 -0.4,0.4L 12 28.6a 0.4,0.4 0 0 1 -0.4,0.4L 11.4 29a 0.4,0.4 0 0 1 -0.4,-0.4z M 15 26.4a 0.4,0.4 0 0 1 0.4,-0.4L 15.6 26a 0.4,0.4 0 0 1 0.4,0.4L 16 26.6a 0.4,0.4 0 0 1 -0.4,0.4L 15.4 27a 0.4,0.4 0 0 1 -0.4,-0.4z M 16 27.4a 0.4,0.4 0 0 1 0.4,-0.4L 16.6 27a 0.4,0.4 0 0 1 0.4,0.4L 17 28.6a 0.4,0.4 0 0 1 -0.4,0.4L 16.4 29a 0.4,0.4 0 0 1 -0.4,-0.4z M 25 27.4a 0.4,0.4 0 0 1 0.4,-0.4L 25.6 27a 0.4,0.4 0 0 1 0.4,0.4L 26 27.6a 0.4,0.4 0 0 1 -0.4,0.4L 25.4 28a 0.4,0.4 0 0 1 -0.4,-0.4z M 24 28.4a 0.4,0.4 0 0 1 0.4,-0.4L 24.6 28a 0.4,0.4 0 0 1 0.4,0.4L 25 28.6a 0.4,0.4 0 0 1 -0.4,0.4L 24.4 29a 0.4,0.4 0 0 1 -0.4,-0.4z M 28 28.4a 0.4,0.4 0 0 1 0.4,-0.4L 28.6 28a 0.4,0.4 0 0 1 0.4,0.4L 29 28.6a 0.4,0.4 0 0 1 -0.4,0.4L 28.4 29a 0.4,0.4 0 0 1 -0.4,-0.4z"></path><path id="qr squares" d="M1.05,0h4.9a1.05,1.05 0 0 1 1.05,1.05v4.9a1.05,1.05 0 0 1 -1.05,1.05h-4.9a1.05,1.05 0 0 1 -1.05,-1.05v-4.9a1.05,1.05 0 0 1 1.05,-1.05zM1.75,1h3.5a0.75,0.75 0 0 1 0.75,0.75v3.5a0.75,0.75 0 0 1 -0.75,0.75h-3.5a0.75,0.75 0 0 1 -0.75,-0.75v-3.5a0.75,0.75 0 0 1 0.75,-0.75zM2.45,2h2.1a0.44999999999999996,0.44999999999999996 0 0 1 0.44999999999999996,0.44999999999999996v2.1a0.44999999999999996,0.44999999999999996 0 0 1 -0.44999999999999996,0.44999999999999996h-2.1a0.44999999999999996,0.44999999999999996 0 0 1 -0.44999999999999996,-0.44999999999999996v-2.1a0.44999999999999996,0.44999999999999996 0 0 1 0.44999999999999996,-0.44999999999999996z M23.05,0h4.9a1.05,1.05 0 0 1 1.05,1.05v4.9a1.05,1.05 0 0 1 -1.05,1.05h-4.9a1.05,1.05 0 0 1 -1.05,-1.05v-4.9a1.05,1.05 0 0 1 1.05,-1.05zM23.75,1h3.5a0.75,0.75 0 0 1 0.75,0.75v3.5a0.75,0.75 0 0 1 -0.75,0.75h-3.5a0.75,0.75 0 0 1 -0.75,-0.75v-3.5a0.75,0.75 0 0 1 0.75,-0.75zM24.45,2h2.1a0.44999999999999996,0.44999999999999996 0 0 1 0.44999999999999996,0.44999999999999996v2.1a0.44999999999999996,0.44999999999999996 0 0 1 -0.44999999999999996,0.44999999999999996h-2.1a0.44999999999999996,0.44999999999999996 0 0 1 -0.44999999999999996,-0.44999999999999996v-2.1a0.44999999999999996,0.44999999999999996 0 0 1 0.44999999999999996,-0.44999999999999996z M1.05,22h4.9a1.05,1.05 0 0 1 1.05,1.05v4.9a1.05,1.05 0 0 1 -1.05,1.05h-4.9a1.05,1.05 0 0 1 -1.05,-1.05v-4.9a1.05,1.05 0 0 1 1.05,-1.05zM1.75,23h3.5a0.75,0.75 0 0 1 0.75,0.75v3.5a0.75,0.75 0 0 1 -0.75,0.75h-3.5a0.75,0.75 0 0 1 -0.75,-0.75v-3.5a0.75,0.75 0 0 1 0.75,-0.75zM2.45,24h2.1a0.44999999999999996,0.44999999999999996 0 0 1 0.44999999999999996,0.44999999999999996v2.1a0.44999999999999996,0.44999999999999996 0 0 1 -0.44999999999999996,0.44999999999999996h-2.1a0.44999999999999996,0.44999999999999996 0 0 1 -0.44999999999999996,-0.44999999999999996v-2.1a0.44999999999999996,0.44999999999999996 0 0 1 0.44999999999999996,-0.44999999999999996z" fill-rule="evenodd" fill-opacity="1" fill="rgb(0, 0, 0)"></path></svg>
